<svg xmlns="http://www.w3.org/2000/svg" viewBox="0 0 539.74 270.95"><defs><style>.cls-1{fill:#fff;}</style></defs><title>Element 3</title><g id="Ebene_2" data-name="Ebene 2"><g id="Ebene_1-2" data-name="Ebene 1"><path class="cls-1" d="M54.16,259.39c-5.2,7.41-13.88,11.34-24.45,11.33-8.15,0-15.94-2.87-21.13-8C3.12,257.38,0,249.26,0,240.41a32.27,32.27,0,0,1,8.07-22.06c5.73-6.35,13.44-9.28,21.77-9.28a39.87,39.87,0,0,1,10.66,1.35c1.87.53,4.64,1.6,6.17,1.6a3.87,3.87,0,0,0,3.76-2.93h1.79L53,229.37H51c-1.06-4.92-2.41-7.51-4.65-9.93-3.93-4.2-8.59-6.79-14.4-6.79-13.53,0-21.5,10.89-21.51,26.34,0,9.82,2.23,16.8,6.43,21.36a21.73,21.73,0,0,0,15.94,6.44c8.05,0,13-2.67,19.7-9Z"/><path class="cls-1" d="M132.05,269.53v-1.69c3.22,0,3.85-.18,4.92-.8a2.61,2.61,0,0,0,1.26-2.15,19,19,0,0,0-1.7-6.26l-3.67-8.4H109.41l-4.12,10.18a11.72,11.72,0,0,0-.81,3.75c0,2.77,2,3.67,6.27,3.67v1.69H92.93v-1.69c5.19-.53,6-2.41,11.29-14.92l18.47-43.58h1.79l22,50.31c2.51,5.81,3.75,7.69,8.41,8.23v1.69ZM121.25,222l-10.31,24.57h20.68Z"/><path class="cls-1" d="M236.64,269.59l-21.3-27.53-5,.18v17.33c0,6.79,1.07,7.86,8,8.31v1.7l-24.71,0v-1.69c6.72-.53,7.61-1.52,7.61-9.39l0-38.14c0-6.61-.7-7.69-7.6-8.23v-1.69l24.35,0c8.51,0,14.86,2.14,18.71,5.27,3,2.42,4.39,6.8,4.38,10.73,0,7.77-5,12.95-16.21,14.64l17.89,22.62c2.59,3.31,4.48,3.84,8.42,4.2v1.7Zm-26.31-30.66c8.6-.17,11.73-.8,15.85-3,3.23-1.78,5.11-5.71,5.11-10.19,0-8-5.27-12-16.37-12-3,0-4.57.62-4.58,3.74Z"/><path class="cls-1" d="M328.06,269.64V268c3.22,0,3.85-.18,4.93-.8a2.59,2.59,0,0,0,1.25-2.15,18.78,18.78,0,0,0-1.69-6.25l-3.67-8.4-23.47,0-4.11,10.19a11.4,11.4,0,0,0-.81,3.74c0,2.78,2,3.67,6.26,3.68v1.69H288.93v-1.69c5.2-.54,6-2.42,11.29-14.92l18.47-43.59h1.8l22,50.32c2.5,5.8,3.75,7.69,8.4,8.22v1.7Zm-10.81-47.53-10.31,24.56h20.69Z"/><path class="cls-1" d="M449.32,239.69c-5.2.45-6.27,1.34-6.27,7.15v17.87c-4.93,4-13.53,6.25-22.76,6.24s-18.25-3.41-24.16-9.57c-5-5.28-7.43-12.15-7.42-20.92,0-9.82,3.59-18,9.59-23.49,5.38-4.91,12.72-7.68,21.41-7.67a33.57,33.57,0,0,1,11.9,2.06,12.24,12.24,0,0,0,3.94.89,4.24,4.24,0,0,0,4-2.94h2l.71,18.86h-2.06c-2.23-5.45-3.66-7.78-6.35-10.37a18.79,18.79,0,0,0-13.07-4.93,20.13,20.13,0,0,0-15,6.16c-4.75,4.73-6.9,12.86-6.9,21.71,0,16.62,9.47,26.63,23.53,26.64,6.9,0,11.91-2.49,11.91-5.44v-14c0-7-.89-7.68-8-8.23v-1.6h22.93Z"/><path class="cls-1" d="M535.61,269.77l-48.26,0V268c6.9-.44,7.8-1.6,7.8-8.48l0-38.95c0-6.61-1.07-8-7.79-8.33v-1.69l47.47,0,.35,12.78H533c-1.34-8.05-3.4-9.38-13.79-9.39H507.44c-2.51,0-3.13.36-3.13,3.22v19.65h13.52c7.7,0,9-1.52,10.12-8.58H530v20.91h-2.06c-1.07-7.51-2.41-8.68-10.11-8.68H504.3v21.72c0,3.75,2.41,4.2,9,4.2h3.23c12.8,0,16.65-2.33,20.69-11.79h2.5Z"/><path class="cls-1" d="M276.23,94.53c7.64,4.84,1.86,29.51,1.86,29.51,17.57-20.23,7.26-42.34,7.26-42.34,22.46,16.35,7,66.06,7,66.06s23.82-13.92,39.75-60.82c0,0,5.28,20.62.73,43.11,0,0,27.16-52.72,5.72-97.27,0,0,16.14,6.59,23.39,11.79,0,0-22.21-32.18-64.38-42.73-41.08-10.27-83.13,25.73-83.13,25.73l9,.08S209,39.05,199.68,47.42c0,0,26.12-20,46.45-21.11l-9.9,11.28s23.11.61,39.71,8.56c0,0,12.79,31.3-27.79,65.38,0,0,1.24-14.63-2.6-21.42,0,0-7.84,13.14-16.09,19.25,0,0,1.75-7.52-.78-12.58,0,0-17.89,13.49-40,13.4l-5.57-7.83,2.11,11.54s19.07,5.69,36.94-4.36a49.87,49.87,0,0,1-12.49,19s20.62-6.63,31.9-21.87c0,0-4.68,10.42-1,32.38C251.85,116.21,261.49,108.45,276.23,94.53Zm62.39-9s1.07-5.48-12.76-25.27C330.86,97,302,134.48,302,134.48c14.51-47.76-16.37-84.79-16.37-84.79A104.43,104.43,0,0,1,308.26,60c-18.75-21.8-59.37-27.74-59.37-27.74,14.48-12.51,35.57-14.88,35.57-14.88-24.82-4.6-52.06,5.24-52.06,5.24,54.93-38.74,100.09.57,100.09.57l-18.42-3.23C350.65,53.16,338.62,85.58,338.62,85.58Z"/><path class="cls-1" d="M179.84,82.28l2,3.08c1.57,2.21,2.57,3.41,3.91,5s2.1,1.69,4.52,2.28,7.05,2.21,11,2.06,10.86-.52,12.73-.64,6.57.8,4.29,1.06c-1.1.12-16.61,2-18.25,2.12a34.41,34.41,0,0,1-5.94-.49c-2.33-.25-5.32-.72-6.45-.85s-1.59.09-2.43,1.18-1.4,2-1.82,2.47-.65.6-1.06-.6-.23-1.75.36-3.63,1-2.34-.52-4.14-4.52-5.82-5.86-7.57A22,22,0,0,0,170.71,79c-1.62-1-1.78-1.36-1.93-2.88s.07-1.78,1.4-3.2a8.36,8.36,0,0,1,.83-.8h0C185.28,60,187.5,58,187.5,58l-10.09,11c-1.22,1.32-1.21,1.82-.2,2.75a3.13,3.13,0,0,0,2.81.7l1.1-.19h0c1.55-.25,3.31-.54,4.56-.72,3.5-.49,3.59-.39,3.63.88,0,1.69-.39,2.19-2.86,3.52-2.19,1.17-5,2.62-6.14,3.21S178.77,80.61,179.84,82.28Z"/><path class="cls-1" d="M217.05,47.06c-6.62,4.36-11.34,13.19-11.34,13.19,10.78-10.74,16.57-10,16.57-10L230.59,41A49.71,49.71,0,0,0,217.05,47.06Zm4.23,1.26s-4,.93-5.28,2c0,0,4.27-4.2,8.53-5.36Z"/></g></g></svg>