<svg width="100" height="32" viewBox="0 0 100 32" fill="none" xmlns="http://www.w3.org/2000/svg">
<g clip-path="url(#clip0)">
<path fill-rule="evenodd" clip-rule="evenodd" d="M31 0.167699C31.8333 -0.0553056 32.6667 -0.0553056 33.5 0.0561967C34.4444 0.22345 35.3333 0.502206 36.1111 1.00397C36.1111 1.72873 36.1111 2.4535 36.1111 3.17826C35.6111 2.788 35.1111 2.4535 34.5 2.23049C33.7222 1.89599 32.8889 1.78448 32.1111 1.84023C31.7222 1.89599 31.3333 1.95174 31 2.17474C30.7778 2.28624 30.5556 2.50925 30.4444 2.73225C30.2778 3.01101 30.2778 3.34552 30.3333 3.68002C30.3889 3.95878 30.5556 4.23753 30.7778 4.40479C31.0556 4.62779 31.4444 4.79505 31.7778 4.90655C32.5 5.1853 33.2222 5.46406 34 5.68706C34.6111 5.91007 35.2222 6.24458 35.7222 6.69059C36.2222 7.1366 36.5556 7.69411 36.6667 8.30737C36.7778 8.97638 36.8333 9.6454 36.6667 10.2587C36.5 10.8162 36.1667 11.3737 35.7222 11.7639C35.2222 12.21 34.6667 12.4887 34.0556 12.656C33.2222 12.879 32.3333 12.9347 31.5 12.8232C30.4444 12.7117 29.3333 12.3772 28.4444 11.7639C28.4444 11.0392 28.4444 10.2587 28.4444 9.5339C29.5 10.4259 30.8889 10.9834 32.2778 10.9834C32.8889 10.9834 33.5 10.9277 34 10.6489C34.2778 10.4817 34.5556 10.2587 34.6667 9.92415C34.7778 9.58965 34.7778 9.19939 34.6667 8.80913C34.5556 8.47462 34.2778 8.19587 33.9444 8.02861C33.3889 7.69411 32.7778 7.52685 32.1667 7.30385C31.4444 7.02509 30.7222 6.80209 30.0556 6.41183C29.5556 6.13307 29.0556 5.74282 28.7778 5.24106C28.3333 4.57204 28.2222 3.73577 28.3333 2.95526C28.3889 2.23049 28.7778 1.50573 29.2778 1.05972C29.7778 0.613708 30.3889 0.334953 31 0.167699ZM80.2222 0.725211C79.6667 1.05972 79.2778 1.56148 79 2.17474C78.8333 2.62075 78.7222 3.17826 78.7778 3.68002C78.7778 4.23753 78.9444 4.79505 79.2222 5.29681C79.5 5.79857 79.9444 6.13307 80.4444 6.46758C80.9444 6.80209 81.5555 6.96934 82.1111 7.19235C82.7222 7.41535 83.3333 7.5826 83.8889 7.86136C84.2222 8.02861 84.6111 8.19587 84.8889 8.53037C85.1667 8.86488 85.2778 9.36664 85.1667 9.81265C85.1111 10.2029 84.8889 10.5374 84.5555 10.7047C84.1667 10.9834 83.6667 11.0392 83.1667 11.0949C82.7222 11.0949 82.2222 11.0949 81.7778 11.0392C80.7222 10.8719 79.7222 10.3702 78.8333 9.70115C78.8333 10.4259 78.8333 11.2064 78.8333 11.9312C79.5 12.3772 80.2778 12.656 81.0555 12.879C82 13.102 83 13.102 83.9444 12.9905C84.6111 12.879 85.3333 12.656 85.8889 12.21C86.3889 11.8754 86.7778 11.3737 87 10.8162C87.2778 10.1472 87.2778 9.42239 87.2222 8.75338C87.1111 8.14012 86.8333 7.52685 86.3889 7.08084C85.8889 6.57908 85.2778 6.24458 84.6667 5.96582C83.9444 5.68706 83.2222 5.46406 82.5 5.1853C82.0555 5.01805 81.6111 4.8508 81.2222 4.57204C80.7778 4.18178 80.6667 3.45702 80.9444 2.89951C81.2222 2.39775 81.7778 2.17474 82.2778 2.11899C83.2222 1.95174 84.2778 2.11899 85.1667 2.50925C85.6667 2.73225 86.1667 3.06676 86.6111 3.40127C86.6111 2.6765 86.6111 1.95174 86.6111 1.22697C85.5555 0.557957 84.3333 0.22345 83.0555 0.22345C82.1111 0.000445547 81.0555 0.167699 80.2222 0.725211ZM93.7778 0.334953C93.1111 0.557957 92.5 0.948215 92.1111 1.56148C91.7222 2.06324 91.5555 2.6765 91.5 3.28976C91.5 3.95878 91.6111 4.62779 91.9444 5.24106C92.2778 5.79857 92.7222 6.18883 93.2778 6.52333C93.9444 6.91359 94.6667 7.1366 95.3889 7.41535C96 7.63836 96.6111 7.80561 97.1667 8.14012C97.4444 8.30737 97.7222 8.58613 97.8889 8.92063C98 9.31089 98 9.70115 97.8889 10.0357C97.7778 10.3144 97.5555 10.5932 97.2778 10.7604C96.7222 11.0392 96.1111 11.0949 95.5 11.0949C94.1111 11.0949 92.7222 10.5374 91.6667 9.6454C91.6667 10.3702 91.6667 11.1507 91.6667 11.8754C92.2778 12.3215 92.9444 12.5445 93.6667 12.7117C94.4444 12.879 95.2222 12.9905 96 12.9347C96.7222 12.879 97.3889 12.7675 98.0555 12.4887C98.6667 12.21 99.2222 11.8197 99.5555 11.2622C99.9444 10.7047 100.111 10.0357 100.056 9.42239C100.056 8.69763 99.8889 7.91711 99.4444 7.3596C99.0555 6.80209 98.4444 6.41183 97.8333 6.13307C97.1667 5.79857 96.4444 5.63131 95.7778 5.35256C95.1667 5.12955 94.5555 4.9623 94.0555 4.57204C93.6111 4.18178 93.5 3.51277 93.7222 3.01101C93.8333 2.73225 94.0555 2.50925 94.3333 2.39775C94.6667 2.17474 95.1111 2.11899 95.5 2.06324C96.2778 2.00749 97.1111 2.11899 97.8333 2.4535C98.4444 2.6765 98.9444 3.01101 99.4444 3.40127C99.4444 2.6765 99.4444 2.00749 99.4444 1.28272C99.4444 1.22697 99.4444 1.17122 99.3889 1.17122C98.2778 0.502206 97 0.167699 95.7222 0.22345C95 0.000445547 94.3889 0.111948 93.7778 0.334953ZM50.2778 0.000445547C50.2778 4.23753 50.2778 8.47462 50.2778 12.7117C50.9444 12.7117 51.6111 12.7117 52.3333 12.7117C52.3333 10.0357 52.3333 7.30385 52.3333 4.62779C53.2778 5.51981 54.1667 6.41183 55.1111 7.30385C57 9.19939 58.9444 11.0392 60.8889 12.9347C60.8889 8.69763 60.8889 4.46054 60.8889 0.22345C60.2222 0.22345 59.5556 0.22345 58.8333 0.22345C58.8333 2.89951 58.8333 5.51981 58.8333 8.19587C56 5.46406 53.1667 2.73225 50.2778 0.000445547ZM0 0.22345C0 4.40479 0 8.53037 0 12.7117C1.44444 12.7117 2.88889 12.7117 4.33333 12.7117C5 12.7117 5.66667 12.7117 6.27778 12.5445C7 12.3772 7.72222 11.9869 8.22222 11.3737C8.66667 10.8719 8.88889 10.1472 8.94444 9.47814C9 8.97638 8.94444 8.41887 8.72222 7.91711C8.44444 7.2481 7.94444 6.74634 7.33333 6.41183C7.22222 6.35608 7.11111 6.30033 7 6.24458C7.66667 5.96582 8.16667 5.35256 8.38889 4.68354C8.61111 4.01453 8.61111 3.34552 8.44444 2.6765C8.33333 2.11899 8 1.56148 7.55556 1.17122C7 0.66946 6.27778 0.446455 5.55556 0.279201C4.77778 0.167699 4.05556 0.22345 3.27778 0.22345C2.16667 0.22345 1.11111 0.22345 0 0.22345ZM2.05556 2.06324C2.66667 2.06324 3.27778 2.06324 3.88889 2.06324C4.33333 2.06324 4.77778 2.06324 5.16667 2.11899C5.55556 2.17474 5.94444 2.34199 6.16667 2.6765C6.44444 3.01101 6.5 3.45702 6.5 3.90303C6.5 4.29329 6.33333 4.68354 6 4.9623C5.61111 5.29681 5.05556 5.40831 4.5 5.46406C3.66667 5.46406 2.83333 5.46406 2 5.46406C2.05556 4.29329 2.05556 3.17826 2.05556 2.06324ZM2.05556 7.19235C2.94444 7.19235 3.83333 7.19235 4.72222 7.19235C5.05556 7.19235 5.44444 7.2481 5.77778 7.3596C6.16667 7.4711 6.5 7.69411 6.66667 8.02861C6.88889 8.41887 6.94444 8.92063 6.88889 9.42239C6.83333 9.8684 6.55555 10.2587 6.22222 10.4817C5.77778 10.7604 5.27778 10.8719 4.77778 10.8719C3.88889 10.8719 3 10.8719 2.11111 10.8719C2.05556 9.6454 2.05556 8.41887 2.05556 7.19235ZM13.5 0.22345C13.5 2.6765 13.5 5.1853 13.5 7.63836C13.5 8.36312 13.5556 9.03213 13.7778 9.70115C13.9444 10.3144 14.2222 10.8719 14.6111 11.3179C14.9444 11.7082 15.3889 12.0427 15.8333 12.3215C16.4444 12.656 17.1667 12.8232 17.8889 12.879C18.8889 12.9347 19.9444 12.879 20.8889 12.433C21.7222 12.0427 22.3889 11.4294 22.8333 10.6489C23.3333 9.7569 23.5 8.69763 23.5 7.69411C23.5 5.1853 23.5 2.73225 23.5 0.22345C22.7778 0.22345 22.1111 0.22345 21.3889 0.22345C21.3889 2.62075 21.3889 5.01805 21.3889 7.3596C21.3889 7.97286 21.3333 8.58613 21.1667 9.19939C21 9.70115 20.7222 10.1472 20.2778 10.4817C19.7778 10.8719 19.1111 10.9834 18.5 10.9834C17.8889 10.9834 17.2222 10.8719 16.7222 10.4817C16.2222 10.0914 15.8889 9.5339 15.7778 8.92063C15.6111 8.19587 15.6111 7.41535 15.6111 6.63483C15.6111 4.46054 15.6111 2.34199 15.6111 0.167699C14.8889 0.22345 14.1667 0.22345 13.5 0.22345ZM42.1667 0.22345C42.1667 4.40479 42.1667 8.53037 42.1667 12.7117C42.8889 12.7117 43.5555 12.7117 44.2778 12.7117C44.2778 8.53037 44.2778 4.40479 44.2778 0.22345C43.6111 0.22345 42.8889 0.22345 42.1667 0.22345ZM66.5 0.22345C66.5 1.00397 66.5 1.78448 66.5 2.62075C66.5 6.02157 66.5 9.36664 66.5 12.7675C69 12.7675 71.5 12.7675 74.0555 12.7675C74.0555 12.1542 74.0555 11.4852 74.0555 10.8719C72.2222 10.8719 70.3889 10.8719 68.6111 10.8719C68.6111 9.58965 68.6111 8.30737 68.6111 7.02509C70.2222 7.02509 71.8889 7.02509 73.5 7.02509C73.5 6.41183 73.5 5.79857 73.5 5.1853C71.8889 5.1853 70.2222 5.1853 68.6111 5.1853C68.6111 4.18178 68.6111 3.17826 68.6111 2.17474C70.4444 2.17474 72.2778 2.17474 74.0555 2.17474C74.0555 1.56148 74.0555 0.892464 74.0555 0.279201C71.5 0.22345 69 0.22345 66.5 0.22345ZM16.4444 19.0116C16.4444 23.1929 16.4444 27.3185 16.4444 31.4999C17.1111 31.4999 17.7778 31.4999 18.4444 31.4999C18.4444 28.8238 18.4444 26.2035 18.4444 23.5274C21.2778 26.2592 24.1111 28.9911 26.8889 31.7229C26.8889 27.5415 26.8889 23.4159 26.8889 19.2346C26.2222 19.2346 25.5556 19.2346 24.8889 19.2346C24.8889 21.8549 24.8889 24.4752 24.8889 27.0955C22.0556 24.3637 19.2222 21.6877 16.4444 19.0116ZM34.1111 19.4576C33.5556 19.7364 33.0556 20.0709 32.7222 20.6284C32.3889 21.1301 32.2222 21.7434 32.2222 22.3567C32.2222 22.9699 32.3333 23.6389 32.6667 24.1965C33 24.754 33.5 25.1442 34.0556 25.423C34.6667 25.7575 35.3333 25.9805 36 26.2035C36.5556 26.4265 37.1667 26.5938 37.7222 26.8725C38.0556 27.0398 38.3333 27.3185 38.4444 27.653C38.5556 27.9875 38.5556 28.3778 38.5 28.7123C38.3889 29.0468 38.1111 29.3256 37.8333 29.4928C37.2778 29.7716 36.6667 29.8273 36.1111 29.8273C34.7222 29.8273 33.3889 29.2698 32.2778 28.3778C32.2778 29.1026 32.2778 29.8273 32.2778 30.5521C32.5556 30.7751 32.8889 30.9423 33.2222 31.0538C34 31.3884 34.7778 31.5556 35.6111 31.6114C36.3889 31.6671 37.2222 31.6114 38 31.3884C38.6111 31.2211 39.2222 30.8866 39.6667 30.4406C40.1111 30.0503 40.4444 29.4928 40.5556 28.8796C40.6667 28.2663 40.6667 27.5973 40.5 26.984C40.3333 26.3708 40 25.869 39.5 25.423C39 25.0327 38.4444 24.754 37.8333 24.531C37.1111 24.2522 36.3333 23.9734 35.6111 23.7504C35.2222 23.5832 34.8333 23.4717 34.5556 23.1372C34.1667 22.8027 34.1111 22.1894 34.2778 21.7434C34.3889 21.4646 34.6111 21.2416 34.8333 21.0744C35.1667 20.8514 35.5556 20.7956 35.9444 20.7399C36.7778 20.6841 37.6111 20.7956 38.3333 21.1301C38.8889 21.3531 39.4444 21.6877 39.9444 22.0779C39.9444 21.3531 39.9444 20.6284 39.9444 19.9036C38.9444 19.2904 37.7778 18.9558 36.6111 18.9001C35.7778 18.9558 34.8889 19.0673 34.1111 19.4576ZM8.33333 19.1788C8.33333 23.3044 8.33333 27.3743 8.33333 31.4999C9.05556 31.4999 9.72222 31.4999 10.4444 31.4999C10.4444 27.3743 10.4444 23.3044 10.4444 19.1788C9.72222 19.1788 9.05556 19.1788 8.33333 19.1788ZM46 19.1788C46 23.3044 46 27.3743 46 31.4999C46.7222 31.4999 47.3889 31.4999 48.1111 31.4999C48.1111 27.3743 48.1111 23.3044 48.1111 19.1788C47.4444 19.1788 46.7222 19.1788 46 19.1788ZM54.2222 19.1788C54.2222 23.3044 54.2222 27.3743 54.2222 31.4999C55.8333 31.4999 57.4444 31.4999 59.0556 31.4999C59.8889 31.4999 60.7222 31.3326 61.5 31.0538C62.5 30.6636 63.3333 29.9388 63.9444 29.0468C64.6667 27.9875 64.9444 26.7053 64.9444 25.423C64.9444 24.531 64.8333 23.6389 64.5555 22.8027C64.1667 21.7992 63.5556 20.9071 62.6667 20.2939C61.6667 19.5691 60.3333 19.2346 59.1111 19.1788C57.4444 19.1788 55.8333 19.1788 54.2222 19.1788ZM56.3333 21.0186C56.9444 21.0186 57.6111 21.0186 58.2222 21.0186C58.6111 21.0186 59.0556 21.0186 59.4444 21.0744C60.1111 21.1301 60.7778 21.3531 61.3333 21.7434C61.8333 22.0779 62.1667 22.5797 62.4444 23.0814C62.7222 23.6389 62.8333 24.2522 62.8889 24.8655C62.9444 25.5345 62.8889 26.2035 62.7222 26.8725C62.5556 27.5415 62.2222 28.1548 61.7222 28.6565C61.1667 29.2141 60.3889 29.4928 59.6111 29.6043C59.2222 29.6601 58.7778 29.6601 58.3889 29.6601C57.7222 29.6601 57.0556 29.6601 56.3889 29.6601C56.3333 26.761 56.3333 23.9177 56.3333 21.0186ZM69.3333 19.1788C69.3333 23.3044 69.3333 27.3743 69.3333 31.4999C71.8333 31.4999 74.3333 31.4999 76.8333 31.4999C76.8333 30.8866 76.8333 30.2733 76.8333 29.6601C75 29.6601 73.2222 29.6601 71.3889 29.6601C71.3889 28.3778 71.3889 27.0955 71.3889 25.869C73 25.869 74.6111 25.869 76.2222 25.869C76.2222 25.2557 76.2222 24.6425 76.2222 24.0292C74.6111 24.0292 73 24.0292 71.3889 24.0292C71.3889 23.0257 71.3889 22.0779 71.3889 21.0744C73.2222 21.0744 75 21.0744 76.8333 21.0744C76.8333 20.4611 76.8333 19.8479 76.8333 19.2346C74.3333 19.1788 71.8333 19.1788 69.3333 19.1788ZM83.0555 19.1788C83.0555 23.3044 83.0555 27.3743 83.0555 31.4999C83.7778 31.4999 84.4444 31.4999 85.1667 31.4999C85.1667 29.8273 85.1667 28.1548 85.1667 26.538C85.6667 26.538 86.1667 26.538 86.6111 26.538C88.0555 28.2105 89.5 29.8831 90.8889 31.4999C91.6667 31.4999 92.5 31.4999 93.2778 31.4999C91.7778 29.8273 90.3333 28.099 88.8333 26.4265C89.2222 26.3708 89.6111 26.2592 90 26.092C90.5 25.869 90.9444 25.4787 91.2222 25.0327C91.6111 24.4195 91.7222 23.6389 91.7222 22.9142C91.7222 22.1894 91.5555 21.4646 91.2222 20.8514C90.8889 20.3496 90.4444 19.9036 89.8889 19.6806C89.2222 19.3461 88.4444 19.2346 87.6667 19.1788C86.1111 19.1788 84.6111 19.1788 83.0555 19.1788ZM85.1667 21.0186C85.7778 21.0186 86.3333 21.0186 86.9444 21.0186C87.3889 21.0186 87.8333 21.0186 88.2778 21.1301C88.7222 21.2416 89.1111 21.4646 89.3889 21.8549C89.6667 22.2452 89.7222 22.7469 89.6667 23.2487C89.6111 23.6389 89.4444 23.9734 89.1667 24.2522C88.7778 24.6425 88.1667 24.754 87.6111 24.8097C86.7778 24.8097 86 24.8097 85.1667 24.8097C85.1667 23.5274 85.1667 22.2452 85.1667 21.0186Z" fill="#151515"/>
</g>
<defs>
<clipPath id="clip0">
<rect width="100" height="31.6667" fill="white"/>
</clipPath>
</defs>
</svg>
