<svg xmlns="http://www.w3.org/2000/svg" viewBox="0 0 19.5 19.5"><defs><style>.cls-1{fill:#fff;}</style></defs><title>language</title><g id="Ebene_2" data-name="Ebene 2"><g id="Ebene_1-2" data-name="Ebene 1"><path class="cls-1" d="M18.94,13a9.54,9.54,0,0,0,0-6.44.36.36,0,0,0,0-.11,9.73,9.73,0,0,0-18.3,0,.36.36,0,0,0,0,.11A9.54,9.54,0,0,0,.56,13a.36.36,0,0,0,0,.11,9.73,9.73,0,0,0,18.3,0A.36.36,0,0,0,18.94,13ZM7.21,12a12.6,12.6,0,0,1,0-4.5h5.08a12.6,12.6,0,0,1,0,4.5Zm4.69,1.5a11.78,11.78,0,0,1-2.15,4,11.78,11.78,0,0,1-2.15-4ZM1.5,9.75A8.38,8.38,0,0,1,1.82,7.5H5.71a14.15,14.15,0,0,0,0,4.5H1.82A8.38,8.38,0,0,1,1.5,9.75ZM7.6,6A11.78,11.78,0,0,1,9.75,2,11.78,11.78,0,0,1,11.9,6Zm6.19,1.5h3.89a8.07,8.07,0,0,1,0,4.5H13.79A14.15,14.15,0,0,0,13.79,7.5ZM17.09,6H13.47a13.5,13.5,0,0,0-2.09-4.34A8.29,8.29,0,0,1,17.09,6Zm-9-4.34A13.5,13.5,0,0,0,6,6H2.41A8.29,8.29,0,0,1,8.12,1.66ZM2.41,13.5H6a13.5,13.5,0,0,0,2.09,4.34A8.29,8.29,0,0,1,2.41,13.5Zm9,4.34a13.5,13.5,0,0,0,2.09-4.34h3.62A8.29,8.29,0,0,1,11.38,17.84Z"/></g></g></svg>