<svg xmlns="http://www.w3.org/2000/svg" viewBox="0 0 19.5 19.5"><defs><style>.cls-1{fill:#fff;}</style></defs><title>login_3</title><g id="Ebene_2" data-name="Ebene 2"><g id="Ebene_1-2" data-name="Ebene 1"><path class="cls-1" d="M9.75,0A9.74,9.74,0,0,0,3.63,17.33a10,10,0,0,0,1.19.82,9.68,9.68,0,0,0,9.86,0,10,10,0,0,0,1.19-.82A9.74,9.74,0,0,0,9.75,0Zm5.63,15.76A6.46,6.46,0,0,0,9.75,13a6.46,6.46,0,0,0-5.63,2.76,8.25,8.25,0,1,1,11.26,0Z"/><path class="cls-1" d="M9.75,4A3.75,3.75,0,1,0,13.5,7.75,3.75,3.75,0,0,0,9.75,4Z"/></g></g></svg>