<?xml version="1.0" encoding="UTF-8"?>
<svg id="Layer_1" data-name="Layer 1" xmlns="http://www.w3.org/2000/svg" viewBox="0 0 450 70">
  <path d="M66.87,.01c-9.33,9.13-18.75,17.95-24.48,22.8-5.73,4.85-11.8,7.5-24.43,7.5H0l2.76-1.68c.67-.41,1.45-.62,2.23-.6h1.62c17.86,0,23.13-2.66,30.51-8.96,6.1-5.18,9.74-8.76,16.88-15.85C56.03,1.19,58.78,.04,61.65,.01h5.23Z" style="fill: #fff;"/>
  <path d="M102.59,1.36c-.75,.61-1.69,.93-2.65,.92h-.23c-12.9,.55-18.05,2.29-22.39,6.25-4.06,3.99-7.9,8.19-11.52,12.59-1.91,2.47-3.49,6.9,5.53,6.9h3.55c11.57,0,15.62-2.66,20.65-7.47,5.18-4.94,6.63-9.28,12.6-14.04C114.88,1.11,120.48,.07,133.58,.07h6.29s-.79,.65-1.63,1.3c-.75,.58-1.66,.92-2.61,.99-10.14,.6-14.55,2.88-17.81,5.73-3.86,3.47-7.35,7.31-10.44,11.47-6.28,8.15-11.59,10.86-21.67,10.86h-20.28c-14.27,0-14.04-5.09-9.47-9.75,5.78-5.87,13.83-13.94,16.45-16.23C77.36,.24,83.48,.06,96.38,.06h7.88l-1.69,1.3h0Z" style="fill: #fff;"/>
  <path d="M91.82,11.67h-12.22c-.55,0-1.1,.1-1.61,.31-.51,.21-.98,.51-1.37,.9-.46,.47-.92,.92-1.25,1.31l11.98-.18c.9-.02,1.78-.32,2.52-.85l1.96-1.48h0Z" style="fill: #fff;"/>
  <path d="M147.82,.01c-1.65-.01-3.24,.62-4.42,1.77-2.66,2.56-7.74,7.37-12.04,11.8-9,9.22-16.22,16.79-16.22,16.79h7.5c.87,0,1.74-.18,2.54-.53,.8-.35,1.52-.85,2.13-1.48l13.24-14.13C143.86,10.68,154.26,.06,154.26,.06h-6.45V.01Z" style="fill: #fff;"/>
  <path d="M192.03,.01h-3.73c-2.63-.08-5.26,.25-7.79,.98-10.89,3.02-21.61,6.6-32.13,10.73-5.41,2.14-9.22,4.71-2.52,10.07,2.69,2.23,5.54,4.26,8.53,6.06,4.33,2.29,10.53,2.57,16.04,2.57h17.11c7.46,0,13.2-1.84,16.59-4.71,9.7-8.29,11.89-10.45,19.82-18.24,3.69-3.63,1.63-7.37-6.11-7.37h-11.64c-4.78-.05-9.45,1.48-13.29,4.33-4.06,3.12-19.12,15.76-19.12,15.76h5.92c1.96,0,4.11,0,6.29-1.91,4.9-4.24,12.13-10.21,16.23-13.57,2.34-1.66,5.16-2.49,8.03-2.38h3.07c2.1,0,3.12,1.39,1.03,3.49-6.2,6.11-14.28,13.47-21.36,19.63-1.84,1.63-3.45,2.66-10.58,2.66h-11.75c-5.97,0-9.22-1.12-12.5-4.06-1.63-1.48-2.98-3.25-3.96-5.22-1.22-2.29-2.01-4.01,2.47-6.06,7.55-3.37,15.27-6.36,23.12-8.94,2.33-.88,4.79-1.38,7.28-1.49,.71,0,1.4-.19,2-.56,1.12-.75,2.94-1.77,2.94-1.77h0Z" style="fill: #fff;"/>
  <path d="M239.69,7.51c-.31,.03-.61,.13-.87,.29-.27,.16-.49,.38-.67,.64-.14,.24,0,.42,.24,.52,.84,.16,1.71,.21,2.56,.14,.83,.03,1.65-.02,2.47-.14,.3-.04,.59-.14,.85-.3,.26-.16,.48-.37,.65-.62,.28-.52-.23-.61-2.85-.61-.79-.05-1.59-.02-2.38,.09h0Zm4.2,1.68c-1.54,1.22-2.77,1.49-6.16,1.49-3.83,0-4.71-.32-4.01-1.49,.61-.94,1.42-1.74,2.38-2.33,1.27-.61,2.65-.92,4.06-.92,.51-.08,1.77-.08,2.84-.08,2.53,0,3.23,.18,2.94,.92l.7-.79c.17-.17,.33-.36,.47-.55,.32-.56-.09-.7-2.57-.7s-2.7,0-3.26,.61h-3.87c.84-.93,1.95-1.58,3.17-1.84,1.35-.37,2.66-.46,6.06-.46,2.77,0,3.96,.14,4.61,.46,.47,.23,.52,.79,.14,1.45-.25,.36-.53,.71-.84,1.02l-4.01,4.61h-3.87l1.22-1.4v.02Z" style="fill: #fff;"/>
  <path d="M264.93,5.79c-.67,.52-1.25,1.14-1.73,1.84-.46,.85,.05,1.03,2.89,1.03,1.91,0,2.61-.09,3.45-.52,.53-.24,.99-.61,1.35-1.07,.35-.34,.65-.72,.92-1.12,.24-.37,.15-.65-.23-.79-.75-.18-1.52-.24-2.29-.18-2.52,0-3.49,.18-4.33,.79l-.04,.02ZM265.9,.01h3.87l-3.96,4.52c1.77-1.16,3.26-1.54,6.39-1.54,1.24-.07,2.48,.06,3.69,.38,.79,.32,.98,.92,.46,1.68-.84,1.21-1.79,2.33-2.85,3.35-1,.98-2.26,1.64-3.63,1.92-1.4,.26-2.82,.39-4.25,.37-3.63,0-4.24-.23-3.77-1.63l-1.35,1.41h-3.87L265.9,.01Z" style="fill: #fff;"/>
  <path d="M286.85,8.26c-.03,.07-.08,.14-.15,.18-.28,.47,.33,.61,3.03,.61,2.38,0,3.32-.18,3.69-.79,.14-.23,.04-.37-.28-.41-.33-.05-.92-.05-2.38-.05h-1.92c-3.69,0-4.66-.38-3.96-1.59,.86-1.29,2.15-2.24,3.64-2.66,2.04-.4,4.12-.55,6.2-.46,5.03,0,6.06,.28,5.32,1.59-.1,.18-.24,.32-.47,.65h-4.05l.05-.05c.18-.37-.29-.46-2.33-.46-2.52,0-3.5,.18-3.78,.7-.23,.37,.14,.46,2.15,.46h2.7c3.5,0,4.43,.38,3.78,1.54-.49,.75-1.11,1.4-1.84,1.92-1.63,1.12-3.46,1.4-8.82,1.4-3.26,0-4.24-.1-4.94-.47-.52-.23-.56-.7-.18-1.31,.15-.24,.32-.46,.52-.65h4.01l.03-.14Z" style="fill: #fff;"/>
  <path d="M313.28,5.42c-.58,.25-1.09,.63-1.49,1.12-.37,.4-.72,.82-1.03,1.26-.42,.75,.14,.92,2.71,.92,2.19,0,2.88-.09,3.63-.47,.51-.26,.95-.62,1.31-1.07,.38-.38,.73-.81,1.02-1.26,.24-.37,.15-.65-.32-.75-.82-.13-1.64-.18-2.47-.14-1.92,0-2.62,.05-3.36,.38h0Zm9.51-2.23c1.45,.18,1.84,.79,1.3,1.77-.61,.91-1.31,1.75-2.09,2.52-1.13,1.43-2.74,2.41-4.52,2.76-1.98,.3-3.98,.42-5.97,.37-2.84,0-4.42-.14-5.03-.46-.61-.32-.75-.79-.33-1.54,.68-.97,1.44-1.88,2.29-2.71,2.28-2.42,4.11-2.94,9.98-2.94,1.77,0,3.46,.1,4.39,.19v.04Z" style="fill: #fff;"/>
  <path d="M338.17,.01h3.87l-9.28,10.49h-3.81L338.17,.01Z" style="fill: #fff;"/>
  <path d="M357.07,10.46h-3.78l1.54-1.64c-1.84,1.45-3.32,1.84-6.45,1.84-1.07,.07-2.15-.07-3.17-.41-.16-.05-.3-.14-.42-.26s-.2-.26-.25-.42c-.05-.16-.06-.33-.04-.49,.03-.16,.09-.32,.19-.45,.33-.53,.7-1.03,1.11-1.49l3.41-3.92h3.87l-3.36,3.78c-.19,.2-.36,.42-.51,.65-.42,.75,.18,.99,2.33,.99,2.52,0,3.69-.47,5.12-2.1l2.94-3.31h3.87l-6.45,7.32,.04-.06Z" style="fill: #fff;"/>
  <path d="M381.37,7.37l-.52,.56c-.67,.89-1.55,1.59-2.56,2.05-1.43,.53-2.96,.77-4.48,.7-2.38,0-3.26-.09-3.78-.41-.11-.06-.2-.15-.28-.26-.07-.11-.12-.23-.14-.35-.02-.13,0-.25,.03-.38,.04-.12,.11-.23,.19-.32,.22-.35,.47-.67,.75-.98l2.61-2.99h-1.95l1.63-1.84h1.95l1.54-1.73h3.92l-1.49,1.71h6.3l-1.64,1.84h-6.29l-2.09,2.42c-.21,.19-.38,.41-.52,.65-.28,.47,0,.7,1.02,.7,.48,.06,.98,0,1.43-.19,.45-.19,.85-.49,1.15-.87l.28-.29h2.94v-.04Z" style="fill: #fff;"/>
</svg>