<svg width="104" height="20" viewBox="0 0 104 20" fill="none" xmlns="http://www.w3.org/2000/svg">
<g clip-path="url(#clip0)">
<path d="M92.0482 4.23249C92.3565 4.23249 92.5648 4.27414 92.6898 4.33663V7.74428H92.6065C90.3152 7.33186 88.9738 8.42748 88.9738 10.9228V15.5677H85.0705V4.46161H88.7864V6.36123H88.8489C89.6529 4.81154 90.7068 4.23249 92.0482 4.23249ZM104 4.46161V14.0805C104 15.8552 103.379 17.2382 102.45 18.0672C101.48 18.9337 100.097 19.2836 98.5261 19.2836C95.5725 19.2836 93.5104 18.0672 93.1355 15.5885H96.8931C97.0389 16.0634 97.5346 16.5384 98.4636 16.5384C99.7217 16.5384 100.155 15.7552 100.155 14.5971V13.7722H100.072C99.4509 14.4971 98.6261 15.0303 97.4097 15.0303C95.0143 15.0303 92.9314 13.2557 92.9314 9.78554C92.9314 6.60701 94.6435 4.12834 97.2264 4.12834C98.7136 4.12834 99.6217 4.72822 100.222 5.67803H100.284V4.46161H104ZM100.326 9.59808C100.326 8.21502 99.6675 7.09858 98.5303 7.09858C97.4346 7.09858 96.7348 8.09004 96.7348 9.59808C96.7348 11.0853 97.4388 12.1559 98.5303 12.1559C99.6634 12.1601 100.326 11.0644 100.326 9.59808ZM13.0474 10.8603C13.0474 12.5308 12.4058 13.8347 11.3561 14.6179C10.4687 15.2594 9.3148 15.5677 7.78594 15.5677H0V0H7.64014C9.08568 0 10.198 0.34993 10.9853 0.991468C11.8726 1.71216 12.3475 2.78694 12.3475 4.06585C12.3475 5.55305 11.7476 6.48203 10.5104 7.06109V7.12357C12.1184 7.66096 13.0474 9.10234 13.0474 10.8603ZM4.23249 6.09045H6.87362C7.69846 6.09045 8.29834 5.63637 8.29834 4.72822C8.29834 3.8409 7.67763 3.40765 6.85279 3.40765H4.23249V6.09045ZM8.87739 10.5312C8.87739 9.45644 8.13587 8.93988 7.24855 8.93988H4.23249V12.1184H7.26938C8.19836 12.1184 8.87739 11.5602 8.87739 10.5312ZM13.7514 15.5677H17.7548V0H13.7514V15.5677ZM82.6501 5.55305C83.929 6.79031 84.5081 8.73158 84.4664 11.0228H77.0137C77.1804 12.4058 77.8386 13.1099 79.0175 13.1099C79.7007 13.1099 80.2964 12.8016 80.5464 12.0559H84.3039C83.6457 14.5929 81.6836 15.876 78.8967 15.876C75.4474 15.876 73.1354 13.5431 73.1354 9.99383C73.1354 6.52369 75.4266 4.11168 78.7509 4.11168C80.4006 4.10751 81.6836 4.62407 82.6501 5.55305ZM80.5672 8.83573C80.5047 7.49433 79.7632 6.79031 78.8342 6.79031C77.7594 6.79031 77.1637 7.55265 77.0179 8.83573H80.5672ZM72.6396 9.99383C72.6396 13.7722 70.8858 15.9385 67.9947 15.9385C66.795 15.9385 65.5577 15.3594 64.8787 14.1222H64.837V15.5677H61.1211V0H65.0245V5.61554H65.087C65.8285 4.6449 66.8199 4.12834 68.2447 4.12834C71.0274 4.12834 72.6396 6.64867 72.6396 9.99383ZM68.6737 9.95217C68.6737 8.1567 68.0155 6.9986 66.8366 6.9986C65.641 6.9986 64.8745 8.1567 64.8745 9.95217C64.8745 11.7268 65.6369 12.9057 66.8366 12.9057C68.0322 12.9016 68.6737 11.7476 68.6737 9.95217ZM42.0166 10.0313C42.0166 13.5639 39.7879 15.9135 36.2761 15.9135C32.7684 15.9135 30.4939 13.5598 30.4939 10.0313C30.4939 6.52369 32.7643 4.14917 36.2761 4.14917C39.7879 4.14917 42.0166 6.52369 42.0166 10.0313ZM38.0549 10.0313C38.0549 8.09005 37.4342 6.87362 36.2386 6.87362C35.043 6.87362 34.4639 8.09005 34.4639 10.0313C34.4639 11.9934 35.043 13.2099 36.2386 13.2099C37.4342 13.214 38.0549 11.9934 38.0549 10.0313ZM30.0398 10.0313C30.0398 13.5639 27.8111 15.9135 24.2993 15.9135C20.7917 15.9135 18.5171 13.5598 18.5171 10.0313C18.5171 6.52369 20.7875 4.14917 24.2993 4.14917C27.8111 4.14917 30.0398 6.52369 30.0398 10.0313ZM26.0781 10.0313C26.0781 8.09005 25.4574 6.87362 24.2618 6.87362C23.0662 6.87362 22.4872 8.09005 22.4872 10.0313C22.4872 11.9934 23.0662 13.2099 24.2618 13.2099C25.4574 13.214 26.0781 11.9934 26.0781 10.0313ZM56.4054 4.12834C55.0431 4.12834 53.8642 4.58242 52.9561 6.04879H52.8936C52.3562 4.83237 51.3022 4.12834 49.8983 4.12834C48.307 4.12834 47.2989 4.8282 46.5532 6.1321H46.4907V4.46161H42.7831V15.5677H46.6865V9.51893C46.6865 8.31917 47.1822 7.41101 48.1529 7.41101C49.1443 7.41101 49.4943 8.15253 49.4943 9.28981V15.5677H53.3935V9.51893C53.3935 8.31917 53.8892 7.41101 54.8598 7.41101C55.8513 7.41101 56.2012 8.15253 56.2012 9.28981V15.5677H60.1046V8.58995C60.1046 6.02796 58.9882 4.12834 56.4054 4.12834Z" fill="#151515"/>
</g>
<defs>
<clipPath id="clip0">
<rect width="104" height="19.2836" fill="white"/>
</clipPath>
</defs>
</svg>
