<svg width="98" height="29" viewBox="0 0 98 29" fill="none" xmlns="http://www.w3.org/2000/svg">
<path fill-rule="evenodd" clip-rule="evenodd" d="M97.0594 28.851V0H66.9747V28.851H97.0594ZM90.2036 8.2856C87.8861 6.95387 85.5677 6.26336 83.3976 6.26336C81.0801 6.26336 79.1559 7.00315 77.6769 8.48274C76.148 9.91305 75.3594 11.6884 75.3594 13.9077C75.3594 16.028 76.148 17.8526 77.6281 19.3332C79.2057 20.7132 81.0801 21.4043 83.3488 21.4043C85.7653 21.4043 88.1326 20.6645 90.4505 19.1844V22.2919C88.2799 23.4753 85.8634 24.0672 83.2004 24.0672C80.9317 24.0672 79.0574 23.6236 77.4787 22.736C75.9681 21.8159 74.6998 20.5474 73.7802 19.0365C72.8926 17.3608 72.3992 15.6836 72.3992 13.9077C72.3992 10.9486 73.4347 8.53203 75.5555 6.55907C77.6276 4.58611 80.1925 3.5506 83.2004 3.5506C85.37 3.5506 87.688 4.09326 90.203 5.22734V8.2856H90.2036ZM63.6218 0H33.5371V28.851H63.6218V0ZM42.7597 4.2904H47.9875C49.6642 4.2904 50.9472 4.48754 51.8831 4.93163C52.8206 5.42499 53.5105 6.01642 53.9552 6.75673C54.4475 7.54581 54.6949 8.43346 54.6949 9.46896C54.6949 11.4414 53.7082 12.8224 51.6367 13.6613C53.1163 13.9077 54.2996 14.4997 55.1385 15.4859C55.9764 16.3735 56.3717 17.5081 56.4204 18.7901C56.3717 19.7768 56.1247 20.7132 55.6319 21.5028C55.0887 22.2919 54.3489 22.9337 53.3134 23.4758C52.2779 23.9692 51.0447 24.2156 49.5159 24.2156H42.7597V4.2904Z" fill="#151515"/>
<path fill-rule="evenodd" clip-rule="evenodd" d="M47.4942 12.8229C49.0226 12.8229 50.1079 12.5272 50.7491 11.9846C51.3904 11.3434 51.7348 10.6036 51.7348 9.66663C51.7348 7.79275 50.5027 6.80602 48.0857 6.80602H45.6204V12.8229H47.4942ZM48.2833 15.3873H45.6204V21.6502H48.481C49.8122 21.6502 50.8975 21.5521 51.5875 21.3545C52.2287 21.0089 52.6728 20.6147 52.9685 20.1711C53.2642 19.6777 53.4619 19.1356 53.4619 18.5437C53.4121 17.9517 53.2642 17.4085 52.9187 16.9162C52.623 16.373 52.1301 15.9788 51.4391 15.7318C50.7989 15.4859 49.7136 15.338 48.2833 15.3873ZM30.0847 0H0V28.851H30.0847V0ZM9.17377 24.2151V4.2904H14.4016C16.0784 4.2904 17.3115 4.48754 18.2485 4.93163C19.1854 5.37519 19.9252 6.01642 20.3693 6.8055C20.8621 7.54529 21.1091 8.43294 21.1584 9.46845C21.1091 11.4409 20.1228 12.8219 18.0513 13.7096C19.5802 13.9565 20.7143 14.5479 21.5532 15.4849C22.3915 16.3725 22.8356 17.5071 22.8356 18.789C22.8356 19.8245 22.5892 20.762 22.0465 21.5018C21.5039 22.3396 20.7641 22.9814 19.7779 23.4748C18.7423 23.9681 17.4599 24.2146 15.931 24.2146H9.17377V24.2151Z" fill="#151515"/>
<path fill-rule="evenodd" clip-rule="evenodd" d="M14.5002 6.80603H12.0344V12.823H13.9576C15.4372 12.823 16.522 12.5272 17.1637 11.9846C17.8044 11.3926 18.1499 10.6036 18.1499 9.71592C18.1494 7.79225 16.9168 6.80603 14.5002 6.80603ZM14.6974 15.3873H12.0344V21.6502H14.8452C16.3248 21.6502 17.4096 21.5521 18.0508 21.3544C18.5935 21.108 19.0371 20.7625 19.3821 20.2691C19.6783 19.727 19.8261 19.1838 19.8754 18.5436C19.8261 17.8526 19.6285 17.3105 19.3328 16.9162C18.9944 16.3702 18.4682 15.9665 17.8532 15.7811C17.1632 15.4859 16.0784 15.3873 14.6974 15.3873Z" fill="#151515"/>
</svg>
