<svg width="110" height="17" viewBox="0 0 110 17" fill="none" xmlns="http://www.w3.org/2000/svg">
<g clip-path="url(#clip0)">
<path d="M13.2197 2.36772C13.565 1.77579 14.1076 1.23319 14.7982 0.887898C15.8834 0.394624 17.3139 0.641261 18.2511 1.38117C19.0897 2.12108 19.5829 3.20628 19.3363 4.39014C19.5829 4.39014 19.7309 4.24216 19.9775 4.1435C21.3094 3.74888 22.6905 4.1435 23.5784 5.27803C24.2197 6.1166 24.417 7.34978 23.9731 8.287C23.8251 8.78027 23.4798 9.17489 23.0852 9.61884L23.1838 9.71749C24.417 9.81615 25.6502 10.704 26.0448 11.9372C26.4394 13.1704 26.1435 14.4036 25.2062 15.2915C24.4663 16.0314 23.5784 16.278 22.5919 16.1794H4.04481C2.46634 16.1794 1.33181 15.5381 0.789206 14.2063C0.295932 13.0718 0.542569 11.5919 1.43046 10.704C2.02239 10.1121 2.7623 9.86548 3.55154 9.71749C2.66365 8.87893 2.2197 7.7444 2.46634 6.51122C2.56499 5.62332 3.35423 4.53812 4.34078 4.19283C5.17934 3.84754 6.31387 3.94619 7.10311 4.34081C6.85647 3.00897 7.4484 1.82512 8.58293 1.08521C9.56947 0.443952 11.0986 0.443952 12.0852 1.18386C12.5784 1.47983 12.9731 1.9731 13.2197 2.36772Z" fill="white"/>
<path d="M18.4484 2.86099C18.3004 2.5157 18.0538 2.21974 17.7578 1.9731C17.0179 1.33185 15.7847 1.23319 14.8968 1.72647C14.0582 2.12108 13.565 3.0583 13.565 3.9462H14.6502C14.7488 4.04485 14.7982 4.04485 14.8968 4.09418C14.4529 4.43947 13.6143 4.73543 13.8116 5.42602L14.9461 12.7265L18.1524 5.52467C18.6457 4.68611 18.8923 3.69956 18.4484 2.86099Z" fill="#151515"/>
<path d="M11.5919 12.6278L12.9238 4.29148C13.0224 3.69956 12.8251 3.15696 12.5785 2.66368C12.3318 2.12108 11.8386 1.77579 11.3453 1.52915C10.4574 1.13453 9.27353 1.38117 8.63228 2.02243C7.99102 2.66368 7.64573 3.65023 7.99102 4.63678L11.2466 11.9372L11.5919 12.6278Z" fill="#151515"/>
<path d="M23.2331 6.11659C23.6277 6.8565 23.5784 7.99103 23.0851 8.63228C22.7399 9.12556 22.2466 9.3722 21.852 9.71749L15.0448 14.4036L15.1434 14.1569L18.7443 6.06726C19.3363 5.08072 20.3228 4.58744 21.3587 4.73542C22.0986 4.93273 22.8385 5.42601 23.2331 6.11659Z" fill="#151515"/>
<path d="M3.99553 9.1749L11.5426 14.3543H11.6413L7.89239 6.06727C7.25114 4.98207 5.9193 4.4888 4.68611 4.93275C3.9462 5.27804 3.35428 5.91929 3.20629 6.6592C2.81167 7.59642 3.15697 8.58297 3.99553 9.1749Z" fill="#151515"/>
<path d="M24.8609 14.6009C25.4529 13.9596 25.5022 12.7758 25.2062 12.0852C24.9596 11.4933 24.4663 11 23.8744 10.7534C23.1345 10.4081 22.1479 10.5067 21.5067 10.9013L14.7982 15.5381H22.8385C23.6278 15.5381 24.269 15.2421 24.8609 14.6009Z" fill="#151515"/>
<path d="M11.7399 15.5381L5.03138 10.8027C4.39013 10.4081 3.40358 10.3094 2.66367 10.6547C2.07174 10.9014 1.57847 11.3946 1.33183 11.9866C0.937211 12.8251 1.08519 13.861 1.67712 14.5023C2.1704 15.1435 2.91031 15.4888 3.74887 15.4888L11.7399 15.5381Z" fill="#151515"/>
<path d="M41.8296 6.60988C41.4843 5.13006 40.3498 4.73544 38.9686 4.63679C34.6278 4.24217 33.8879 7.49777 33.8879 8.87894C33.8879 11.2466 34.5291 13.1211 38.8206 13.1211C39.6592 13.1211 41.7802 12.2825 41.7802 11H47.9462C47.6995 14.9462 41.139 15.8341 38.278 15.8341C32.3587 15.8341 27.278 14.7489 27.5246 8.87894C27.6726 4.68611 31.6188 1.7758 39.4619 1.97311C43.8027 2.07176 47.9955 3.45293 47.9955 6.56055H41.8296V6.60988Z" fill="#151515"/>
<path d="M103.291 6.60986C102.946 5.13004 101.812 4.73542 100.43 4.63677C96.0896 4.24215 95.3497 7.49775 95.3497 8.82959C95.3497 11.1973 95.991 13.0717 100.282 13.0717C101.121 13.0717 103.242 12.2332 103.242 10.9507H109.408C109.161 14.8969 102.601 15.7847 99.7398 15.7847C93.8206 15.7847 88.7398 14.6995 88.9865 8.82959C89.1345 4.63677 93.0807 1.72645 100.924 1.92376C105.264 2.02242 109.507 3.40358 109.507 6.51121H103.291V6.60986Z" fill="#151515"/>
<path d="M49.1301 2.26907H57.0718L63.8789 11.7893H63.9776V2.26907H69.0583V15.4395H61.4619L54.3588 5.9193H54.2601V15.4395H49.1301C49.1301 15.4888 49.1301 2.26907 49.1301 2.26907Z" fill="#151515"/>
<path d="M70.5875 2.26907H80.2556C84.9417 2.26907 87.6054 3.60091 87.6054 5.52468C87.6054 6.65921 86.4709 8.13903 83.9059 8.53365C86.9148 8.68163 88.0987 10.6547 88.0987 11.7893C88.0987 14.157 85.4843 15.3902 80.2556 15.3902H70.5875V2.26907ZM76.2601 7.44845H77.8879C80.3543 7.44845 81.6368 7.30046 81.6368 6.21526C81.6368 5.13006 80.5516 4.73544 78.3812 4.73544H76.3094V7.44845H76.2601ZM76.2601 12.7758H77.8879C80.8476 12.7758 81.9821 12.4305 81.9821 11.444C81.9821 10.3588 80.6009 9.96414 78.3812 9.96414H76.3094V12.7265H76.2601V12.7758Z" fill="#151515"/>
</g>
<defs>
<clipPath id="clip0">
<rect width="110" height="16.87" fill="white"/>
</clipPath>
</defs>
</svg>
