<svg width="110" height="9" viewBox="0 0 110 9" fill="none" xmlns="http://www.w3.org/2000/svg">
<g clip-path="url(#clip0)">
<path fill-rule="evenodd" clip-rule="evenodd" d="M2.73194 7.57779C2.73194 8.1975 2.90904 8.33913 4.04212 8.33913V8.72861H0.0939178V8.33913C0.872893 8.33913 1.1386 8.26826 1.1386 7.59553V1.27481C1.1386 0.601973 0.872893 0.53111 0.0939178 0.53111V0.141622H6.71563L6.75111 2.49639H6.43238C6.25527 0.725958 5.81267 0.566698 4.16611 0.566698H2.7143V4.0723H3.88276C4.99821 4.0723 5.06907 3.89519 5.15757 3.00997H5.4763V5.57723H5.15757C5.06907 4.69201 4.99821 4.53254 3.88276 4.53254H2.7143V7.57789H2.73204L2.73194 7.57779ZM7.56546 8.72861V8.33913C8.34454 8.33913 8.61015 8.26826 8.61015 7.59553V1.27481C8.61015 0.601973 8.34454 0.53111 7.56546 0.53111V0.141622H11.2482V0.531214C10.4691 0.531214 10.2035 0.602078 10.2035 1.27491V7.59563C10.2035 8.26837 10.4691 8.33923 11.2482 8.33923V8.72872H7.56536L7.56546 8.72861ZM19.6049 8.87024L13.7268 1.59343V7.56015C13.7268 8.25073 14.2048 8.35687 15.0194 8.35687V8.74646H11.9033V8.35687C12.7176 8.35687 13.1603 8.25073 13.1603 7.56015V0.93834C12.7885 0.548852 12.5229 0.53111 11.9033 0.53111V0.141622H14.6653L19.1623 5.93123V1.31019C19.1623 0.619715 18.6843 0.513472 17.8699 0.513472V0.141622H21.0036V0.531214C20.1893 0.531214 19.7466 0.637457 19.7466 1.32804V8.87045H19.6049V8.87024ZM23.8011 8.72861H20.7026V8.33913C21.5171 8.33913 21.8889 8.23288 22.1544 7.52467L24.9519 0.0531214H25.7309L28.7408 7.57779C29.0064 8.25063 29.1303 8.32138 29.75 8.32138V8.71087H26.1559V8.32138C27.2536 8.32138 27.3598 8.23288 27.0941 7.57779L26.209 5.29388H23.5178L22.7211 7.50693C22.4733 8.17976 22.8628 8.32138 23.8189 8.32138V8.72861H23.8011ZM23.6771 4.85117H26.0142L24.7926 1.77054L23.6771 4.85117ZM37.8235 8.87024L31.9631 1.59343V7.56015C31.9631 8.25073 32.4411 8.35687 33.2556 8.35687V8.74646H30.2102V8.35687C30.9539 8.35687 31.3965 8.25073 31.3965 7.56015V0.956082C30.9717 0.566594 30.6529 0.53111 29.9448 0.53111V0.141622H32.8837L37.3808 5.93123V1.31019C37.3808 0.619715 36.9028 0.513472 36.0884 0.513472V0.141622H39.2046V0.531214C38.3901 0.531214 37.9475 0.637457 37.9475 1.32804V8.87045H37.8235V8.87024ZM46.5167 0.123985H46.7292L46.8531 2.69114L46.5345 2.70888C46.322 1.23943 45.543 0.460351 44.1088 0.460351C42.5154 0.460351 41.3115 1.82366 41.3115 3.91283C41.3115 6.58633 42.9934 8.1089 44.7638 8.1089C45.5253 8.1089 46.2158 7.89652 46.8885 7.17066L47.1365 7.41842C46.5875 8.1975 45.5075 8.8526 44.0556 8.8526C41.8957 8.8526 39.7003 7.22368 39.7003 4.49706C39.7002 1.85904 41.7008 0 44.1266 0C45.2774 0 45.8794 0.49573 46.198 0.49573C46.3396 0.49573 46.4459 0.37185 46.5167 0.123985ZM47.8446 8.72861V8.33913C48.6236 8.33913 48.8893 8.26826 48.8893 7.59553V1.27481C48.8893 0.601973 48.6236 0.53111 47.8446 0.53111V0.141622H51.5273V0.531214C50.7483 0.531214 50.4826 0.602078 50.4826 1.27491V7.59563C50.4826 8.26837 50.7483 8.33923 51.5273 8.33923V8.72872H47.8446V8.72861ZM54.9975 8.72861H52.1115V8.33913C52.749 8.33913 53.0853 8.23288 53.3509 7.52467L56.1483 0.0531214H56.9273L59.9372 7.57779C60.2028 8.25063 60.3267 8.32138 60.9464 8.32138V8.71087H57.3524V8.32138C58.4501 8.32138 58.5563 8.23288 58.2907 7.57779L57.4055 5.29388H54.7143L53.9175 7.50693C53.6697 8.17976 54.0592 8.32138 55.0153 8.32138V8.72861H54.9976H54.9975ZM54.8735 4.85117H57.2106L56.0067 1.77054L54.8735 4.85117ZM61.5483 8.72861V8.33913C62.3274 8.33913 62.593 8.26826 62.593 7.59553V1.27481C62.593 0.601973 62.3274 0.53111 61.5483 0.53111V0.141622H65.2133V0.531214C64.4343 0.531214 64.1863 0.602078 64.1863 1.27491V7.64876C64.1863 8.21525 64.4697 8.28611 64.93 8.28611H65.3727C67.0369 8.28611 67.5681 8.03824 68.0284 6.14382L68.3471 6.1792L68.0815 8.71108H61.5483V8.72882V8.72861ZM79.3951 0.141622L79.4305 2.63802H79.1118C78.9349 0.796717 78.4922 0.566698 76.8455 0.566698H76.3144V7.57789C76.3144 8.25073 76.5623 8.33923 77.6246 8.33923V8.72872H73.4108V8.33923C74.4731 8.33923 74.7386 8.23299 74.7386 7.57789V0.566594H74.2075C72.561 0.566594 72.1183 0.796717 71.9412 2.63802H71.6226L71.658 0.141622H79.3951ZM80.2272 8.72872V8.33913C81.0063 8.33913 81.2719 8.26826 81.2719 7.59553V1.27481C81.2719 0.601973 81.0063 0.53111 80.2272 0.53111V0.141622H83.91V0.531214C83.1309 0.531214 82.8653 0.602078 82.8653 1.27491V7.59563C82.8653 8.26837 83.1309 8.33923 83.91 8.33923V8.72872H80.2272ZM94.9934 0.141518V0.531214C94.2144 0.531214 93.878 0.566698 93.9488 1.25717L94.6216 7.63101C94.6925 8.28611 94.9403 8.35687 95.7193 8.35687V8.74646H92.0543V8.35687C92.8157 8.35687 93.0813 8.28611 93.0282 7.63101L92.3376 0.938235L89.6287 8.88787H89.5225L86.8666 0.920702L86.2291 7.61317C86.1584 8.286 86.6187 8.35676 87.3977 8.35676V8.74636H84.5295V8.35676C85.3085 8.35676 85.5741 8.23288 85.6272 7.61317L86.3 1.23933C86.3709 0.566594 86.0344 0.513472 85.2553 0.513472V0.141622H88.2652L90.0712 6.00199L92.0187 0.141622H94.9931L94.9934 0.141518ZM101.845 5.57702H101.527C101.438 4.6918 101.367 4.53233 100.252 4.53233H98.9415V7.64855C98.9415 8.21504 99.2249 8.2859 99.6851 8.2859H100.393C102.058 8.2859 102.589 8.03804 103.049 6.14361L103.368 6.17899L103.067 8.71087H96.3035V8.32128C97.0825 8.32128 97.3481 8.25052 97.3481 7.57768V1.27481C97.3481 0.601973 97.0825 0.53111 96.3034 0.53111V0.141622H102.801L102.837 2.28391H102.518C102.323 0.761233 101.934 0.584231 100.234 0.584231H98.9593V4.07209H100.269C101.385 4.07209 101.456 3.89508 101.544 3.00987H101.863V5.57712H101.845L101.845 5.57702ZM108.679 6.95797C108.679 6.17899 108.184 5.78951 107.334 5.31141L105.971 4.6032C104.944 4.05434 104.342 3.45237 104.342 2.37241C104.342 1.02694 105.492 0 106.997 0C108.024 0 108.555 0.49573 108.856 0.49573C109.051 0.49573 109.14 0.37185 109.228 0.123985H109.476L109.6 2.53188L109.281 2.54962C109.104 1.38095 108.272 0.477989 107.104 0.477989C106.218 0.477989 105.634 1.0092 105.634 1.7528C105.634 2.56726 106.254 2.90362 106.944 3.27547L108.113 3.89508C109.211 4.49706 109.99 5.09903 109.99 6.24986C109.99 7.77253 108.679 8.8526 107.051 8.8526C105.9 8.8526 105.333 8.30364 105.032 8.30364C104.837 8.30364 104.731 8.48075 104.643 8.74636H104.395L104.218 6.19674L104.536 6.16136C104.784 7.75479 105.882 8.40989 106.98 8.40989C107.9 8.39214 108.679 7.98502 108.679 6.95818L108.679 6.95797Z" fill="#151515"/>
</g>
<defs>
<clipPath id="clip0">
<rect width="110" height="8.97533" fill="white"/>
</clipPath>
</defs>
</svg>
