<svg width="110" height="13" viewBox="0 0 110 13" fill="none" xmlns="http://www.w3.org/2000/svg">
<g clip-path="url(#clip0)">
<path d="M14.2664 12.585H18.2795L20.431 0.274581H16.4179L15.6245 4.68314H12.1454L12.9389 0.274581H8.9258L6.77429 12.585H10.7874L11.5961 7.97812H15.0751L14.2664 12.585ZM22.7046 0.259327L21.4839 7.10861C21.3771 7.64252 21.3313 8.16117 21.3313 8.64932C21.3313 12.2799 24.5051 12.8291 26.4125 12.8291C30.4103 12.8291 32.1346 11.5019 32.7602 7.9171L34.103 0.244072H30.0899L28.9455 6.68148C28.5793 8.69508 28.3199 9.74764 26.8245 9.74764C25.8479 9.74764 25.3749 9.22899 25.3749 8.16117C25.3749 7.7493 25.4359 7.2459 25.558 6.62046L26.7177 0.244072H22.7046V0.259327ZM55.3129 12.585H59.326L59.8905 9.41204H61.7826C65.2769 9.41204 67.2148 7.52048 67.2148 4.07296C67.2148 1.64749 65.5363 0.259327 62.5914 0.259327H57.4644L55.3129 12.585ZM61.569 6.37639H60.4093L60.9434 3.47803H62.0268C62.9118 3.47803 63.3848 3.92041 63.3848 4.7289C63.3848 5.75096 62.6982 6.37639 61.569 6.37639ZM75.0121 0C70.6481 0 68.0388 2.82209 68.0388 7.56624C68.0388 10.8612 70.114 12.8443 73.593 12.8443C77.9571 12.8443 80.5663 10.0222 80.5663 5.27807C80.5816 1.96783 78.5064 0 75.0121 0ZM73.8372 9.65611C72.7996 9.65611 72.1892 8.90864 72.1892 7.65777C72.1892 7.18488 72.235 6.77301 72.3265 6.30012C72.6317 4.68314 73.1505 3.20345 74.7832 3.20345C75.8208 3.20345 76.4312 3.95092 76.4312 5.20179C76.4312 5.67468 76.3854 6.08656 76.2939 6.55945C75.9887 8.16117 75.4699 9.65611 73.8372 9.65611ZM94.5282 12.585H98.5413L100.128 3.56956H103.15L103.729 0.274581H93.4601L92.8803 3.56956H96.0846L94.5282 12.585ZM87.8754 4.82043C86.6089 4.42381 86.0901 4.25601 86.0901 3.66109C86.0901 3.26447 86.3495 2.79158 87.1124 2.79158C87.677 2.79158 88.15 3.11192 88.3331 3.58481L91.8732 2.62378C91.4612 0.884763 89.9658 0 87.3871 0C82.5347 0 82.1533 3.24921 82.1533 4.24076C82.1533 6.25435 83.2214 7.48997 85.5407 8.13066C86.1511 8.29846 86.853 8.48152 86.853 9.15271C86.853 9.68662 86.4563 10.0222 85.7696 10.0222C85.144 10.0222 84.4726 9.65611 84.2437 9.01542L80.7495 9.9612C81.1309 11.7917 82.8552 12.8291 85.556 12.8291C87.616 12.8291 91.0645 12.2799 91.0645 8.55779C91.0797 6.69674 90.0269 5.47637 87.8754 4.82043Z" fill="#151515"/>
<path d="M4.53128 12.5844L6.69805 0.273956H0.0604248V12.5844H4.53128ZM105.454 0.273956L103.302 12.5844H109.94V0.273956H105.454Z" fill="#B3B3B3"/>
<path d="M38.8946 8.9543H42.2668L42.8162 5.85763H39.444L39.8254 3.56945H44.5404L45.1203 0.259216H36.3922L34.2407 12.5849H38.2538L38.8946 8.9543ZM49.408 8.9543H52.7955L53.3448 5.85763H49.9726L50.3541 3.56945H55.0691L55.6489 0.259216H46.9208L44.7693 12.5849H48.7824L49.408 8.9543Z" fill="#151515"/>
</g>
<defs>
<clipPath id="clip0">
<rect width="110" height="12.8443" fill="white"/>
</clipPath>
</defs>
</svg>
