<?xml version="1.0" encoding="utf-8"?>
<!-- Generator: Adobe Illustrator 28.0.0, SVG Export Plug-In . SVG Version: 6.00 Build 0)  -->
<svg version="1.1" id="Capa_1" xmlns="http://www.w3.org/2000/svg" xmlns:xlink="http://www.w3.org/1999/xlink" x="0px" y="0px"
	 viewBox="0 0 132.2 85.6" style="enable-background:new 0 0 132.2 85.6;" xml:space="preserve">
<style type="text/css">
	.st0{fill:#FFFFFF;}
</style>
<g>
	<g>
		<path class="st0" d="M32.6,8v27.2h-2.1c-0.2,0-0.5-0.1-0.8-0.3c-0.3-0.2-0.5-0.4-0.8-0.7c-0.2-0.3-0.4-0.6-0.6-0.9
			c-0.2-0.3-0.3-0.6-0.4-0.9l-6-10.9v10.7c0,0.4,0.2,0.7,0.5,1c0.3,0.3,0.6,0.5,0.9,0.6v1.5h-9.8v-1.5c0.3-0.1,0.6-0.3,0.9-0.6
			c0.4-0.3,0.5-0.6,0.5-1V7.9c0-0.3-0.2-0.7-0.5-0.9c-0.4-0.3-0.7-0.5-0.9-0.6V4.9h3.7c0.1,0,0.3,0.1,0.5,0.3
			c0.2,0.2,0.5,0.4,0.7,0.7c0.3,0.3,0.5,0.6,0.7,1c0.2,0.4,0.4,0.7,0.5,1l6,11.5V7.6c0-0.2-0.2-0.5-0.5-0.7
			c-0.4-0.3-0.7-0.4-0.9-0.5V4.9H34v1.5c-0.2,0.1-0.5,0.3-0.9,0.6C32.8,7.3,32.6,7.6,32.6,8L32.6,8L32.6,8z"/>
	</g>
	<g>
		<path class="st0" d="M47.7,6.9c-0.4-0.3-0.8-0.4-1.3-0.5c-0.4,0.1-0.7,0.2-1.1,0.5c-0.4,0.3-0.5,0.6-0.5,1v10.9
			c0.5,0,1-0.1,1.3-0.4c0.3-0.2,0.5-0.8,0.5-1.8h1.7V23h-1.7v-0.3c0-0.9-0.2-1.4-0.5-1.6c-0.3-0.2-0.8-0.3-1.3-0.3v11.3
			c0,0.4,0.2,0.7,0.6,1c0.4,0.3,0.8,0.5,1.3,0.7c0.4-0.1,0.7-0.2,1.1-0.4c0.4-0.2,0.5-0.5,0.5-1v-6.8c0-0.6,0.1-1.1,0.4-1.6
			c0.3-0.4,0.7-0.8,1.1-1.1c0.4-0.3,0.9-0.5,1.5-0.7c0.5-0.2,1-0.3,1.5-0.3h4v1.6c-0.3,0.1-0.7,0.4-1,0.7c-0.4,0.4-0.6,0.7-0.6,1.1
			v9.9H36.2v-1.5c0.3-0.1,0.6-0.3,1-0.6c0.3-0.3,0.5-0.6,0.5-1V7.9c0-0.4-0.2-0.7-0.5-1c-0.3-0.3-0.7-0.5-1-0.5V4.8h18.9v9.9
			c0,0.1,0.1,0.3,0.2,0.5c0.1,0.2,0.2,0.4,0.4,0.6c0.2,0.2,0.3,0.3,0.5,0.5c0.2,0.1,0.4,0.2,0.5,0.3v1.6h-4c-0.4,0-0.9-0.1-1.5-0.3
			c-0.5-0.2-1-0.4-1.5-0.7c-0.4-0.3-0.8-0.7-1.1-1.1c-0.3-0.4-0.4-1-0.4-1.6V7.7C48.3,7.4,48.1,7.1,47.7,6.9z"/>
	</g>
	<g>
		<path class="st0" d="M75.6,33.4c-0.4,0.4-0.9,0.7-1.5,1c-0.6,0.3-1.1,0.5-1.7,0.6c-0.5,0.1-0.9,0.2-1.2,0.2h-7.6
			c-0.3,0-0.8-0.1-1.3-0.2c-0.5-0.1-1-0.3-1.5-0.6c-0.5-0.3-0.9-0.6-1.2-1C59.2,33,59,32.6,59,32.1V8c0-0.8,0.2-1.3,0.5-1.8
			s0.8-0.7,1.2-0.9c0.5-0.2,1-0.3,1.5-0.4c0.5-0.1,1-0.1,1.3-0.1h8c0.4,0,0.8,0,1.3,0c0.5,0,1,0.1,1.5,0.3c0.5,0.2,0.9,0.5,1.3,0.9
			c0.4,0.4,0.5,1,0.5,1.8v3.4c0,0.1,0,0.3,0.1,0.5c0.1,0.2,0.2,0.4,0.4,0.6c0.2,0.2,0.3,0.3,0.5,0.5c0.2,0.1,0.4,0.2,0.5,0.3v1.6h-4
			c-0.4,0-0.9-0.1-1.5-0.3c-0.5-0.2-1-0.4-1.5-0.7c-0.4-0.3-0.8-0.7-1.1-1.1c-0.3-0.4-0.4-1-0.4-1.6V9.4c0-0.3,0-0.5-0.1-0.8
			c-0.1-0.3-0.2-0.6-0.3-0.8c-0.1-0.2-0.3-0.4-0.5-0.6C68.2,7,67.9,7,67.7,7c-0.7,0.1-1.1,0.4-1.3,0.8C66.1,8.1,66,8.5,65.9,9v21.9
			c0,0.6,0.1,1.1,0.4,1.6c0.2,0.4,0.7,0.7,1.2,0.7h0.1c0.4,0,0.8-0.2,1.1-0.7c0.4-0.4,0.6-0.9,0.6-1.4v-9.6c0-0.4-0.2-0.7-0.5-1
			C68.6,20.2,68.3,20,68,20v-1.5h9.7V20c-0.3,0.1-0.6,0.3-0.9,0.5c-0.3,0.3-0.5,0.6-0.5,1v10.7C76.3,32.6,76,33,75.6,33.4z"/>
	</g>
	<g>
		<path class="st0" d="M80.1,33.7c0.3-0.1,0.6-0.3,1-0.6c0.3-0.3,0.5-0.6,0.5-1V7.9c0-0.4-0.2-0.7-0.5-1c-0.3-0.3-0.7-0.5-1-0.5V4.8
			h13.8c0.5,0,1,0.1,1.6,0.2c0.6,0.1,1.1,0.3,1.6,0.6c0.5,0.3,0.9,0.7,1.2,1.1c0.3,0.5,0.5,1,0.5,1.7v7.3c0,0.3-0.1,0.5-0.2,0.8
			c-0.1,0.3-0.3,0.5-0.5,0.7c-0.2,0.2-0.4,0.4-0.5,0.6c-0.2,0.2-0.3,0.3-0.4,0.4l0.1,0.1c0.1,0.1,0.3,0.2,0.4,0.3
			c0.2,0.2,0.3,0.4,0.5,0.7c0.2,0.3,0.3,0.6,0.4,0.9c0.1,0.3,0.2,0.7,0.2,1.1v14.8c0,0.4,0.1,0.7,0.4,0.9c0.3,0.2,0.5,0.4,0.9,0.5
			c0.3,0.1,0.7,0.2,1.1,0.3c0.4,0.1,0.7,0.1,0.9,0.1v1.6H97c-0.4,0-1-0.1-1.5-0.2c-0.6-0.1-1.1-0.3-1.6-0.6c-0.5-0.3-1-0.6-1.3-1.1
			c-0.4-0.4-0.5-1-0.5-1.6V20.9c-0.1-0.5-0.5-0.9-1.2-1c-0.6-0.1-1.4-0.2-2.3-0.2v12.4c0,0.4,0.2,0.7,0.5,1c0.3,0.3,0.6,0.5,0.9,0.6
			v1.5h-9.8V33.7z M88.5,17.6c0.2,0,0.5,0,0.9,0c0.4,0,0.8-0.1,1.1-0.2c0.4-0.1,0.7-0.3,1-0.5c0.3-0.2,0.4-0.5,0.4-0.9V8.3
			c0-0.6-0.3-0.9-0.8-1.1C90.6,7,90,7,89.3,7h-0.8V17.6z"/>
	</g>
	<g>
		<path class="st0" d="M105.6,4.8h8c0.4,0,0.8,0,1.3,0.1c0.5,0.1,1,0.2,1.5,0.4c0.5,0.2,0.9,0.6,1.3,1c0.4,0.4,0.5,1.1,0.5,1.9v23.9
			c0,0.5-0.2,0.9-0.5,1.3c-0.4,0.4-0.8,0.7-1.2,1c-0.5,0.3-1,0.5-1.5,0.6c-0.5,0.1-1,0.2-1.3,0.2h-8c-0.3,0-0.8-0.1-1.3-0.2
			c-0.5-0.1-1-0.3-1.5-0.6c-0.5-0.3-0.9-0.6-1.2-1c-0.4-0.4-0.5-0.8-0.5-1.3v-24c0-0.8,0.2-1.4,0.5-1.8c0.3-0.4,0.8-0.8,1.2-1
			c0.5-0.2,1-0.3,1.5-0.4C104.8,4.9,105.2,4.8,105.6,4.8z M109.6,7c-0.3,0-0.5,0.1-0.7,0.3c-0.2,0.2-0.4,0.4-0.5,0.6
			c-0.2,0.2-0.3,0.5-0.3,0.8c-0.1,0.3-0.1,0.6-0.1,0.8v21.5c0,0.6,0.1,1.1,0.4,1.6c0.2,0.4,0.7,0.7,1.2,0.7c0.8,0,1.3-0.3,1.5-0.8
			c0.2-0.5,0.3-1.2,0.3-2V9.4c0-0.3,0-0.5-0.1-0.8c-0.1-0.3-0.2-0.6-0.3-0.8c-0.1-0.2-0.3-0.4-0.5-0.6C110.1,7,109.9,7,109.6,7z"/>
	</g>
</g>
<g>
	<g>
		<path class="st0" d="M11,46.8c-0.2,0.4-0.3,0.8-0.4,1.3V70c0,0.6,0.1,1.1,0.4,1.6c0.2,0.4,0.7,0.7,1.2,0.7h0.1
			c0.4,0,0.8-0.2,1.2-0.7c0.4-0.4,0.5-0.9,0.5-1.4v-5.5c0-0.6,0.1-1.1,0.4-1.6c0.3-0.4,0.7-0.8,1.1-1.1c0.4-0.3,0.9-0.5,1.5-0.7
			c0.5-0.2,1-0.3,1.5-0.3h4v1.6c-0.3,0.1-0.7,0.4-1.1,0.7c-0.4,0.4-0.5,0.7-0.5,1.1v6.8c0,0.5-0.2,0.9-0.7,1.3
			c-0.4,0.4-0.9,0.7-1.5,1c-0.6,0.3-1.1,0.5-1.7,0.6c-0.5,0.1-0.9,0.2-1.2,0.2H8.3c-0.3,0-0.8-0.1-1.3-0.2c-0.5-0.1-1-0.3-1.5-0.6
			c-0.5-0.3-0.9-0.6-1.2-1c-0.4-0.4-0.5-0.8-0.5-1.3V47.2c0-0.8,0.2-1.3,0.5-1.8C4.6,45,5,44.7,5.5,44.5c0.5-0.2,1-0.3,1.5-0.4
			C7.5,44,8,44,8.3,44h8c0.4,0,0.8,0,1.3,0c0.5,0,1,0.1,1.5,0.3c0.5,0.2,0.9,0.5,1.3,0.9c0.4,0.4,0.5,1,0.5,1.8v6.8
			c0,0.1,0,0.3,0.1,0.5c0.1,0.2,0.2,0.4,0.4,0.6c0.2,0.2,0.3,0.3,0.5,0.5c0.2,0.1,0.4,0.2,0.5,0.3v1.6h-4c-0.4,0-0.9-0.1-1.5-0.3
			c-0.5-0.2-1-0.4-1.5-0.7c-0.4-0.3-0.8-0.7-1.1-1.1c-0.3-0.4-0.4-0.9-0.4-1.5v-5.1c0-0.3,0-0.5-0.1-0.8c-0.1-0.3-0.2-0.6-0.3-0.8
			c-0.1-0.2-0.3-0.4-0.5-0.6c-0.2-0.2-0.5-0.3-0.7-0.3C11.7,46.2,11.3,46.5,11,46.8z"/>
	</g>
	<g>
		<path class="st0" d="M25.1,72.8c0.2-0.1,0.5-0.3,0.9-0.6c0.4-0.3,0.5-0.6,0.5-1V47c0-0.4-0.2-0.7-0.5-1c-0.4-0.3-0.6-0.5-0.9-0.5
			V44h13.2c0.2,0,0.7,0,1.3,0.1c0.6,0,1.3,0.2,1.9,0.3c0.7,0.2,1.2,0.5,1.8,0.9c0.5,0.4,0.8,1,0.8,1.8v28.3c0,0.4,0.1,0.7,0.4,0.9
			c0.3,0.2,0.6,0.4,0.9,0.5c0.4,0.1,0.7,0.2,1.1,0.3c0.4,0.1,0.6,0.1,0.8,0.1v1.6h-4.8c-0.4,0-1-0.1-1.5-0.2
			c-0.6-0.1-1.1-0.3-1.6-0.6c-0.5-0.3-1-0.6-1.3-1.1c-0.4-0.4-0.5-1-0.5-1.6V58.8h-4v12.5c0,0.4,0.2,0.7,0.5,1
			c0.3,0.3,0.6,0.5,0.9,0.6v1.5h-9.7V72.8z M33.4,46.1v10.5h3.7v-8c0-0.3,0-0.5-0.1-0.8c-0.1-0.3-0.2-0.5-0.4-0.8
			c-0.2-0.3-0.3-0.5-0.6-0.6c-0.2-0.2-0.5-0.2-0.8-0.2H33.4z"/>
	</g>
	<g>
		<path class="st0" d="M46.6,72.8c0.3-0.1,0.6-0.3,1-0.6c0.3-0.3,0.5-0.6,0.5-1V47c0-0.4-0.2-0.7-0.5-1c-0.3-0.3-0.7-0.5-1-0.5V44
			h13.8c0.5,0,1,0.1,1.6,0.2c0.6,0.1,1.1,0.3,1.6,0.6c0.5,0.3,0.9,0.7,1.2,1.1c0.3,0.5,0.5,1,0.5,1.7v7.3c0,0.3-0.1,0.5-0.2,0.8
			c-0.1,0.3-0.3,0.5-0.5,0.7c-0.2,0.2-0.4,0.4-0.5,0.6c-0.2,0.2-0.3,0.3-0.4,0.4l0.1,0.1c0.1,0.1,0.3,0.2,0.4,0.3
			c0.2,0.2,0.3,0.4,0.5,0.7c0.2,0.3,0.3,0.6,0.4,0.9c0.1,0.3,0.2,0.7,0.2,1.1v14.8c0,0.4,0.1,0.7,0.4,0.9c0.3,0.2,0.5,0.4,0.9,0.5
			c0.3,0.1,0.7,0.2,1.1,0.3c0.4,0.1,0.7,0.1,0.9,0.1v1.6h-4.9c-0.4,0-1-0.1-1.5-0.2c-0.6-0.1-1.1-0.3-1.6-0.6
			c-0.5-0.3-1-0.6-1.3-1.1c-0.4-0.4-0.5-1-0.5-1.6V60.1c-0.1-0.5-0.5-0.9-1.2-1c-0.6-0.1-1.4-0.2-2.3-0.2v12.4c0,0.4,0.2,0.7,0.5,1
			c0.3,0.3,0.6,0.5,0.9,0.6v1.5h-9.8V72.8z M55,56.7c0.2,0,0.5,0,0.9,0c0.4,0,0.8-0.1,1.1-0.2c0.4-0.1,0.7-0.3,1-0.5
			c0.3-0.2,0.4-0.5,0.4-0.9v-7.7c0-0.6-0.3-0.9-0.8-1.1c-0.5-0.2-1.1-0.2-1.7-0.2H55V56.7z"/>
	</g>
	<g>
		<path class="st0" d="M67.5,72.8c0.3-0.1,0.6-0.3,1-0.6c0.3-0.3,0.5-0.6,0.5-1V47c0-0.4-0.2-0.7-0.5-1c-0.3-0.3-0.7-0.5-1-0.5V44
			h13.9c0.5,0,1,0.1,1.6,0.2c0.6,0.1,1.1,0.3,1.6,0.6c0.5,0.3,0.9,0.7,1.2,1.1c0.3,0.5,0.5,1,0.5,1.7v7.3c0,0.3-0.1,0.5-0.2,0.8
			c-0.1,0.3-0.3,0.5-0.4,0.7c-0.2,0.2-0.3,0.4-0.5,0.6c-0.2,0.2-0.3,0.3-0.4,0.4l0.1,0.1c0.1,0.1,0.3,0.2,0.4,0.4
			c0.2,0.2,0.3,0.4,0.5,0.6c0.2,0.3,0.3,0.5,0.4,0.9c0.1,0.3,0.2,0.7,0.2,1.1v10.8c0,0.5-0.2,0.9-0.5,1.3c-0.4,0.4-0.8,0.7-1.2,1
			c-0.5,0.3-1,0.5-1.5,0.6c-0.5,0.1-1,0.2-1.3,0.2H67.5V72.8z M75.9,56.7c0.2,0,0.5,0,0.9,0c0.4,0,0.8-0.1,1.1-0.2
			c0.4-0.1,0.7-0.3,1-0.5c0.3-0.2,0.4-0.5,0.4-0.9v-7.7c0-0.6-0.3-0.9-0.8-1.1c-0.5-0.2-1.1-0.2-1.7-0.2h-0.8V56.7z M79.3,60.1
			c-0.1-0.5-0.5-0.9-1.2-1c-0.6-0.1-1.4-0.2-2.3-0.2v12.4c0,0.3,0.2,0.7,0.5,1h1.8c0.5,0,0.8-0.3,1-0.8c0.1-0.5,0.2-1.2,0.2-2V60.1z
			"/>
	</g>
	<g>
		<path class="st0" d="M101,47.3c0.3,0,0.8,0,1.2,0.1c0.5,0,1,0.2,1.4,0.4c0.5,0.2,0.9,0.5,1.2,0.9c0.3,0.4,0.5,1,0.5,1.7v21.4
			c0,0.4-0.2,0.8-0.5,1.2c-0.3,0.4-0.7,0.6-1.2,0.9c-0.5,0.2-0.9,0.4-1.4,0.5c-0.5,0.1-0.9,0.2-1.2,0.2h-7.7c-0.3,0-0.8-0.1-1.3-0.2
			c-0.5-0.1-1-0.3-1.5-0.5c-0.5-0.2-0.9-0.5-1.2-0.9C89.1,72.4,89,72,89,71.6V50.1c0-0.7,0.2-1.2,0.5-1.6c0.3-0.4,0.7-0.7,1.2-0.9
			c0.5-0.2,0.9-0.3,1.5-0.4c0.5,0,0.9-0.1,1.3-0.1H101z M94.1,46l2-3.9h4.4L98.3,46H94.1z M96,49.9c-0.3,0.5-0.4,1-0.4,1.5v19.2
			c0,0.5,0.1,1,0.4,1.4c0.2,0.4,0.6,0.6,1.2,0.6c0.7,0,1.2-0.2,1.4-0.7c0.2-0.5,0.3-1.1,0.3-1.8V51.3c0-0.5-0.1-1-0.4-1.5
			c-0.3-0.5-0.7-0.8-1.2-0.8C96.6,49.1,96.2,49.4,96,49.9z"/>
	</g>
	<g>
		<path class="st0" d="M126.7,47.1v27.2h-2.1c-0.2,0-0.5-0.1-0.8-0.3c-0.3-0.2-0.5-0.4-0.8-0.7c-0.2-0.3-0.4-0.6-0.6-0.9
			c-0.2-0.3-0.3-0.6-0.4-0.9l-6-10.9v10.7c0,0.4,0.2,0.7,0.5,1c0.3,0.3,0.6,0.5,0.9,0.6v1.5h-9.8v-1.5c0.3-0.1,0.6-0.3,0.9-0.6
			c0.4-0.3,0.5-0.6,0.5-1V47c0-0.3-0.2-0.7-0.5-0.9c-0.4-0.3-0.7-0.5-0.9-0.6V44h3.7c0.1,0,0.3,0.1,0.5,0.3c0.2,0.2,0.5,0.4,0.7,0.7
			c0.3,0.3,0.5,0.6,0.7,1c0.2,0.4,0.4,0.7,0.5,1l6,11.5V46.8c0-0.2-0.2-0.5-0.5-0.7c-0.4-0.3-0.7-0.4-0.9-0.5V44h9.7v1.5
			c-0.2,0.1-0.5,0.3-0.9,0.6C126.8,46.4,126.6,46.7,126.7,47.1L126.7,47.1L126.7,47.1z"/>
	</g>
</g>
</svg>
