<?xml version="1.0" encoding="utf-8"?>
<!-- Generator: Adobe Illustrator 27.6.1, SVG Export Plug-In . SVG Version: 6.00 Build 0)  -->
<svg version="1.1" id="Capa_1" xmlns="http://www.w3.org/2000/svg" xmlns:xlink="http://www.w3.org/1999/xlink" x="0px" y="0px"
	 viewBox="0 0 41.78 16.84" style="enable-background:new 0 0 41.78 16.84;" xml:space="preserve">
<style type="text/css">
	.st0{fill:#FFFFFF;}
	.st1{fill:#C12A24;}
</style>
<g>
	<g>
		<path class="st0" d="M12.72,3.41c-0.32-0.55-0.75-0.98-1.3-1.3s-1.14-0.48-1.81-0.48h-8v10.04h1.43v-8.6h6.56
			c0.4,0,0.76,0.1,1.09,0.29c0.32,0.19,0.58,0.45,0.77,0.77c0.19,0.33,0.29,0.69,0.29,1.09c0,0.39-0.1,0.75-0.29,1.08
			c-0.19,0.33-0.45,0.59-0.77,0.79c-0.33,0.2-0.69,0.29-1.09,0.29H3.85v1.42h5.76c0.66,0,1.26-0.16,1.81-0.49
			c0.54-0.32,0.97-0.76,1.3-1.3c0.32-0.54,0.48-1.14,0.48-1.8C13.2,4.56,13.04,3.96,12.72,3.41z"/>
	</g>
	<g>
		<path class="st0" d="M16.14,7.22V1.63H14.7v10.04h1.43V8.8l0,0V7.22C16.14,7.22,16.14,7.22,16.14,7.22z M20.41,5.72l5.69-4.08H24
			l-7.05,5.01v1.57l2.36-1.7l5.12,5.16h1.94L20.41,5.72z"/>
	</g>
	<g>
		<g>
			<path class="st1" d="M35.11,9.39c0.02,0.03,0.04,0.05,0.07,0.08c0.04,0.06,0.09,0.1,0.15,0.15c0.04,0.04,0.09,0.09,0.14,0.12
				c0.07,0.06,0.14,0.11,0.21,0.15c0.02,0.02,0.04,0.03,0.06,0.04c0.12,0.07,0.25,0.13,0.38,0.18c0.09,0.03,0.18,0.06,0.28,0.07
				c0.14,0.03,0.29,0.04,0.44,0.04c0.15,0,0.29-0.01,0.43-0.04c0.24-0.04,0.46-0.13,0.67-0.25c0.33-0.2,0.59-0.46,0.79-0.79
				c0.2-0.33,0.29-0.7,0.29-1.1V1.63h1.43v6.42c0,0.66-0.16,1.26-0.49,1.81c-0.32,0.55-0.76,0.99-1.31,1.31
				c-0.34,0.2-0.71,0.35-1.1,0.42c-0.23,0.04-0.47,0.07-0.72,0.07c-0.15,0-0.3-0.01-0.44-0.03c-0.43-0.05-0.82-0.17-1.2-0.37
				c-0.34-0.17-0.64-0.39-0.91-0.64c0.23-0.22,0.43-0.48,0.6-0.76c0.08-0.14,0.15-0.27,0.2-0.41L35.11,9.39z"/>
		</g>
	</g>
	<g>
		<g>
			<path class="st0" d="M3.86,14.44c0,0.12-0.01,0.21-0.03,0.3c-0.03,0.09-0.06,0.17-0.1,0.23c-0.04,0.06-0.1,0.12-0.16,0.17
				c-0.06,0.05-0.13,0.08-0.2,0.11c-0.07,0.03-0.16,0.05-0.25,0.06c-0.09,0.01-0.18,0.02-0.28,0.02H1.92v-1.78h0.92
				c0.15,0,0.28,0.01,0.41,0.04c0.12,0.03,0.23,0.08,0.33,0.15c0.09,0.07,0.16,0.16,0.22,0.27C3.84,14.12,3.86,14.27,3.86,14.44z
				 M3.7,14.44c0-0.1-0.01-0.18-0.03-0.26c-0.02-0.07-0.05-0.14-0.08-0.2s-0.08-0.1-0.13-0.14c-0.05-0.03-0.11-0.07-0.18-0.09
				c-0.06-0.02-0.14-0.04-0.21-0.05S2.92,13.7,2.84,13.7H2.08v1.49h0.76c0.13,0,0.24-0.01,0.35-0.03c0.11-0.02,0.2-0.06,0.27-0.12
				c0.08-0.06,0.14-0.13,0.18-0.23C3.68,14.7,3.7,14.58,3.7,14.44z"/>
			<path class="st0" d="M2.84,15.39H1.85v-1.91h0.98c0.15,0,0.29,0.01,0.42,0.04c0.14,0.03,0.25,0.09,0.35,0.16
				c0.1,0.07,0.18,0.18,0.23,0.3c0.06,0.12,0.09,0.27,0.09,0.46c0,0.12-0.01,0.23-0.04,0.32c-0.03,0.1-0.06,0.18-0.11,0.25
				c-0.05,0.07-0.11,0.14-0.18,0.18c-0.07,0.05-0.14,0.09-0.22,0.12c-0.08,0.03-0.17,0.05-0.26,0.06
				C3.03,15.39,2.94,15.39,2.84,15.39z M1.98,15.26h0.85c0.09,0,0.18-0.01,0.27-0.02s0.16-0.03,0.23-0.06
				c0.07-0.03,0.13-0.06,0.19-0.1c0.06-0.04,0.1-0.09,0.14-0.15c0.04-0.06,0.07-0.13,0.09-0.21c0.02-0.08,0.03-0.18,0.03-0.29
				c0-0.16-0.03-0.29-0.07-0.4c-0.05-0.1-0.12-0.19-0.2-0.25c-0.09-0.06-0.18-0.11-0.3-0.14c-0.12-0.03-0.25-0.04-0.39-0.04H1.98
				L1.98,15.26L1.98,15.26z M2.84,15.24H2.02v-1.62h0.82c0.09,0,0.17,0,0.25,0.01c0.08,0.01,0.15,0.03,0.22,0.05
				c0.07,0.03,0.13,0.06,0.19,0.1c0.06,0.04,0.11,0.09,0.15,0.16c0.04,0.06,0.07,0.13,0.09,0.21s0.03,0.18,0.03,0.27
				c0,0.15-0.03,0.29-0.07,0.39c-0.05,0.11-0.12,0.19-0.2,0.25c-0.08,0.06-0.18,0.11-0.3,0.13C3.09,15.23,2.96,15.24,2.84,15.24z
				 M2.14,15.12h0.69c0.12,0,0.23-0.01,0.33-0.03c0.1-0.02,0.18-0.06,0.25-0.11s0.12-0.12,0.16-0.2c0.04-0.09,0.06-0.2,0.06-0.33
				c0-0.09-0.01-0.17-0.03-0.24s-0.04-0.12-0.07-0.18c-0.03-0.05-0.07-0.09-0.12-0.12c-0.05-0.03-0.1-0.06-0.16-0.08
				c-0.06-0.02-0.12-0.03-0.2-0.05c-0.07-0.01-0.15-0.01-0.23-0.01H2.14C2.14,13.76,2.14,15.12,2.14,15.12z"/>
		</g>
		<g>
			<path class="st0" d="M6.73,14.56v0.76H6.57v-1.78h0.89c0.14,0,0.25,0.01,0.35,0.03s0.18,0.05,0.24,0.1
				c0.06,0.04,0.11,0.1,0.14,0.16c0.03,0.06,0.04,0.14,0.04,0.22c0,0.13-0.03,0.24-0.11,0.32c-0.07,0.08-0.18,0.14-0.34,0.16
				l0.61,0.79h-0.2l-0.58-0.77c-0.03,0-0.05,0-0.07,0c-0.03,0-0.05,0-0.08,0L6.73,14.56L6.73,14.56z M8.05,14.06
				c0-0.08-0.01-0.14-0.04-0.18c-0.03-0.05-0.07-0.09-0.13-0.11c-0.06-0.03-0.14-0.04-0.24-0.05S7.43,13.7,7.28,13.7H6.73v0.71h0.55
				c0.14,0,0.26,0,0.36-0.01s0.18-0.03,0.24-0.05c0.06-0.03,0.11-0.06,0.13-0.11C8.04,14.2,8.05,14.13,8.05,14.06z"/>
			<path class="st0" d="M8.52,15.39H8.15l-0.57-0.76c-0.01,0-0.03,0-0.04,0c-0.03,0-0.05,0-0.08,0H6.79v0.76H6.5v-1.91h0.95
				c0.14,0,0.26,0.01,0.36,0.03c0.1,0.02,0.19,0.06,0.26,0.11c0.07,0.05,0.12,0.12,0.16,0.19c0.03,0.07,0.05,0.16,0.05,0.25
				c0,0.15-0.04,0.27-0.12,0.36c-0.06,0.07-0.15,0.12-0.27,0.16L8.52,15.39z M8.21,15.26h0.04L7.66,14.5l0.1-0.02
				C7.9,14.45,8,14.4,8.06,14.33c0.06-0.07,0.09-0.16,0.09-0.28c0-0.07-0.01-0.14-0.03-0.2c-0.03-0.05-0.06-0.1-0.12-0.13
				c-0.06-0.04-0.13-0.07-0.21-0.09c-0.09-0.02-0.2-0.03-0.33-0.03H6.63v1.65h0.03V14.5h0.79c0.03,0,0.05,0,0.08,0
				c0.03,0,0.05,0,0.07,0l0.03,0L8.21,15.26z M7.28,14.48H6.66v-0.85h0.62c0.14,0,0.27,0,0.37,0.01c0.11,0.01,0.19,0.03,0.26,0.06
				c0.07,0.03,0.13,0.08,0.16,0.14c0.03,0.06,0.05,0.13,0.05,0.22c0,0.09-0.02,0.16-0.05,0.22c-0.03,0.06-0.09,0.1-0.16,0.14
				c-0.07,0.03-0.15,0.05-0.26,0.06C7.55,14.47,7.42,14.48,7.28,14.48z M6.79,14.35h0.48c0.14,0,0.26,0,0.35-0.01
				c0.09-0.01,0.17-0.02,0.22-0.05c0.05-0.02,0.08-0.05,0.1-0.08c0.02-0.03,0.03-0.09,0.03-0.15c0-0.06-0.01-0.12-0.03-0.15
				c-0.02-0.03-0.05-0.06-0.1-0.08c-0.05-0.02-0.13-0.04-0.22-0.05c-0.1-0.01-0.22-0.01-0.35-0.01H6.79
				C6.79,13.76,6.79,14.35,6.79,14.35z"/>
		</g>
		<g>
			<path class="st0" d="M11.01,15.33v-1.78h0.16v1.78H11.01z"/>
			<path class="st0" d="M11.24,15.39h-0.29v-1.91h0.29V15.39z M11.07,15.26h0.03v-1.65h-0.03V15.26z"/>
		</g>
		<g>
			<path class="st0" d="M14.91,15.33h-0.24l-0.89-1.78h0.18l0.84,1.67l0.84-1.67h0.18L14.91,15.33z"/>
			<path class="st0" d="M14.95,15.39h-0.32l-0.95-1.91H14l0.79,1.59l0.79-1.59h0.33L14.95,15.39z M14.84,15.26h0.03l0.83-1.65h-0.03
				L14.84,15.26z M14.71,15.26h0.04l-0.82-1.65h-0.03L14.71,15.26z"/>
		</g>
		<g>
			<path class="st0" d="M18.41,15.33v-1.78h1.49v0.15h-1.31v0.61h1.24v0.15h-1.24v0.71h1.33v0.15H18.41L18.41,15.33z"/>
			<path class="st0" d="M19.98,15.39h-1.64v-1.91h1.61v0.28h-1.31v0.48h1.24v0.28h-1.24v0.59h1.33L19.98,15.39L19.98,15.39z
				 M18.47,15.26h1.38v-0.02h-1.33v-0.85h1.24v-0.02h-1.24v-0.74h1.31v-0.02h-1.35L18.47,15.26L18.47,15.26z"/>
		</g>
		<g>
			<path class="st0" d="M26.93,15.26c-0.06,0.02-0.12,0.04-0.19,0.06c-0.07,0.01-0.14,0.03-0.2,0.03c-0.07,0.01-0.15,0.01-0.24,0.01
				c-0.11,0-0.2-0.01-0.3-0.03c-0.1-0.02-0.19-0.04-0.27-0.08c-0.09-0.03-0.16-0.08-0.23-0.13s-0.13-0.11-0.18-0.18
				c-0.05-0.07-0.09-0.15-0.12-0.23s-0.04-0.18-0.04-0.28c0-0.1,0.01-0.2,0.04-0.28c0.03-0.09,0.06-0.16,0.12-0.23
				c0.05-0.07,0.11-0.13,0.18-0.18c0.07-0.05,0.15-0.09,0.23-0.13c0.09-0.03,0.18-0.06,0.27-0.08c0.1-0.02,0.2-0.03,0.31-0.03
				c0.09,0,0.17,0,0.24,0.01s0.14,0.02,0.2,0.03s0.13,0.03,0.19,0.06c0.06,0.02,0.12,0.05,0.18,0.07v0.2
				c-0.05-0.03-0.1-0.06-0.16-0.09c-0.06-0.03-0.12-0.05-0.18-0.07c-0.06-0.02-0.14-0.03-0.21-0.05c-0.07-0.02-0.15-0.02-0.24-0.02
				c-0.17,0-0.32,0.02-0.44,0.06c-0.12,0.03-0.23,0.09-0.31,0.16c-0.08,0.07-0.14,0.15-0.18,0.25c-0.04,0.1-0.06,0.2-0.06,0.32
				c0,0.12,0.02,0.23,0.06,0.32c0.04,0.1,0.1,0.18,0.18,0.25c0.08,0.07,0.18,0.12,0.31,0.16c0.12,0.03,0.27,0.06,0.44,0.06
				c0.09,0,0.17-0.01,0.24-0.02c0.07-0.01,0.15-0.03,0.21-0.05s0.13-0.05,0.18-0.07c0.06-0.03,0.11-0.06,0.15-0.09v0.19
				C27.05,15.21,26.99,15.23,26.93,15.26z"/>
			<path class="st0" d="M26.29,15.43c-0.11,0-0.21-0.01-0.32-0.03c-0.1-0.02-0.2-0.05-0.29-0.08c-0.09-0.03-0.17-0.08-0.24-0.14
				c-0.07-0.06-0.14-0.12-0.19-0.2c-0.05-0.07-0.09-0.16-0.12-0.25c-0.03-0.09-0.04-0.19-0.04-0.3c0-0.11,0.01-0.21,0.04-0.3
				c0.03-0.09,0.07-0.18,0.12-0.25c0.05-0.07,0.12-0.14,0.19-0.2c0.07-0.06,0.15-0.1,0.24-0.14c0.09-0.03,0.18-0.06,0.29-0.08
				c0.18-0.03,0.39-0.03,0.56-0.01c0.07,0.01,0.15,0.02,0.21,0.03c0.07,0.02,0.13,0.03,0.2,0.06c0.06,0.02,0.12,0.05,0.19,0.07
				l0.04,0.02V14l-0.1-0.06c-0.05-0.03-0.1-0.06-0.15-0.09c-0.05-0.03-0.11-0.05-0.18-0.07c-0.06-0.02-0.13-0.03-0.2-0.05
				c-0.07-0.01-0.15-0.02-0.23-0.02c-0.16,0-0.31,0.02-0.43,0.05c-0.12,0.03-0.21,0.09-0.29,0.15s-0.13,0.14-0.16,0.22
				c-0.03,0.09-0.05,0.19-0.05,0.3c0,0.11,0.02,0.21,0.05,0.3c0.03,0.09,0.09,0.16,0.16,0.22c0.07,0.06,0.17,0.11,0.29,0.15
				c0.12,0.03,0.26,0.05,0.43,0.05c0.08,0,0.16-0.01,0.23-0.02c0.07-0.01,0.14-0.03,0.2-0.05c0.06-0.02,0.12-0.04,0.18-0.07
				c0.05-0.03,0.1-0.05,0.15-0.08l0.1-0.07v0.35l-0.04,0.02c-0.06,0.03-0.12,0.05-0.19,0.07l0,0c-0.06,0.02-0.13,0.04-0.2,0.06
				c-0.07,0.02-0.14,0.03-0.21,0.03C26.46,15.42,26.38,15.43,26.29,15.43z M26.29,13.58c-0.1,0-0.2,0.01-0.29,0.03
				c-0.09,0.02-0.18,0.04-0.26,0.07c-0.08,0.03-0.15,0.07-0.21,0.12c-0.06,0.05-0.12,0.1-0.16,0.17c-0.05,0.06-0.08,0.14-0.1,0.21
				c-0.03,0.08-0.03,0.17-0.03,0.26c0,0.1,0.01,0.18,0.03,0.26c0.03,0.08,0.06,0.15,0.1,0.21c0.05,0.06,0.1,0.12,0.16,0.17
				c0.06,0.05,0.14,0.09,0.21,0.12c0.08,0.03,0.17,0.06,0.26,0.07c0.17,0.03,0.37,0.03,0.52,0.01c0.07-0.01,0.14-0.02,0.2-0.03
				c0.06-0.01,0.12-0.03,0.18-0.05c0.05-0.02,0.09-0.03,0.14-0.05v-0.03c-0.02,0.01-0.04,0.02-0.06,0.03
				c-0.06,0.03-0.12,0.05-0.19,0.07c-0.07,0.02-0.14,0.04-0.22,0.05c-0.08,0.01-0.16,0.02-0.25,0.02c-0.18,0-0.33-0.02-0.47-0.06
				c-0.14-0.04-0.25-0.1-0.33-0.17c-0.09-0.07-0.16-0.17-0.2-0.27c-0.04-0.1-0.06-0.22-0.06-0.35s0.02-0.24,0.06-0.35
				c0.04-0.11,0.11-0.2,0.2-0.27c0.09-0.07,0.2-0.13,0.33-0.17c0.13-0.04,0.29-0.06,0.47-0.06c0.09,0,0.17,0.01,0.25,0.02
				c0.08,0.01,0.15,0.03,0.22,0.05c0.07,0.02,0.13,0.05,0.19,0.08c0.02,0.01,0.04,0.02,0.06,0.03v-0.03
				c-0.05-0.02-0.09-0.03-0.14-0.05c-0.06-0.02-0.12-0.04-0.18-0.05c-0.06-0.01-0.13-0.03-0.2-0.03
				C26.45,13.58,26.37,13.58,26.29,13.58z"/>
		</g>
		<g>
			<path class="st0" d="M29.83,15.33v-1.78h0.16v1.63h1.3v0.15H29.83L29.83,15.33z"/>
			<path class="st0" d="M31.35,15.39h-1.59v-1.91h0.29v1.63h1.3L31.35,15.39L31.35,15.39z M29.89,15.26h1.33v-0.02h-1.3v-1.63h-0.03
				V15.26L29.89,15.26z"/>
		</g>
		<g>
			<path class="st0" d="M35.65,15.01c-0.03,0.07-0.09,0.14-0.17,0.19c-0.07,0.05-0.17,0.09-0.28,0.12
				c-0.12,0.03-0.24,0.04-0.39,0.04s-0.28-0.01-0.39-0.04c-0.12-0.03-0.2-0.07-0.28-0.12c-0.08-0.06-0.13-0.12-0.17-0.19
				c-0.03-0.07-0.06-0.15-0.06-0.24v-1.22h0.16v1.23c0,0.06,0.02,0.12,0.05,0.17c0.03,0.05,0.08,0.1,0.14,0.14
				c0.06,0.04,0.14,0.07,0.23,0.09c0.09,0.03,0.2,0.03,0.32,0.03c0.12,0,0.23-0.01,0.32-0.03c0.09-0.03,0.17-0.06,0.23-0.09
				c0.06-0.04,0.11-0.09,0.14-0.14c0.03-0.06,0.05-0.11,0.05-0.17v-1.23h0.16v1.22C35.7,14.85,35.68,14.94,35.65,15.01z"/>
			<path class="st0" d="M34.8,15.43c-0.15,0-0.29-0.01-0.41-0.05c-0.12-0.03-0.22-0.07-0.3-0.13c-0.09-0.06-0.15-0.13-0.19-0.21
				c-0.04-0.08-0.06-0.18-0.06-0.27v-1.29h0.29v1.3c0,0.05,0.01,0.09,0.04,0.14s0.06,0.09,0.12,0.12c0.06,0.03,0.13,0.06,0.21,0.09
				c0.17,0.04,0.43,0.04,0.61,0c0.09-0.02,0.16-0.05,0.21-0.09c0.05-0.03,0.09-0.07,0.12-0.12c0.03-0.04,0.04-0.09,0.04-0.14v-1.3
				h0.29v1.29c0,0.1-0.02,0.19-0.06,0.27l0,0c-0.04,0.08-0.11,0.15-0.19,0.21c-0.08,0.06-0.18,0.1-0.3,0.13
				C35.09,15.41,34.96,15.43,34.8,15.43z M33.97,13.61v1.16c0,0.08,0.02,0.15,0.05,0.21s0.08,0.12,0.15,0.16
				c0.07,0.05,0.16,0.09,0.26,0.11c0.11,0.03,0.23,0.04,0.38,0.04s0.27-0.01,0.38-0.04c0.11-0.03,0.19-0.06,0.26-0.11
				c0.06-0.05,0.12-0.1,0.15-0.16l0,0c0.03-0.06,0.05-0.14,0.05-0.21v-1.16h-0.03v1.17c0,0.07-0.02,0.14-0.06,0.2
				c-0.03,0.06-0.09,0.12-0.16,0.16c-0.07,0.04-0.15,0.08-0.25,0.1c-0.2,0.05-0.48,0.05-0.67,0c-0.1-0.03-0.18-0.06-0.25-0.1
				c-0.07-0.05-0.12-0.1-0.16-0.16s-0.06-0.13-0.06-0.2v-1.17H33.97z"/>
		</g>
		<g>
			<path class="st0" d="M40.28,14.84c0,0.07-0.01,0.13-0.03,0.18c-0.02,0.05-0.04,0.09-0.08,0.13c-0.03,0.03-0.07,0.07-0.12,0.09
				c-0.05,0.02-0.09,0.04-0.15,0.06c-0.06,0.01-0.12,0.02-0.18,0.03c-0.06,0-0.13,0.01-0.19,0.01h-1.03v-1.78h1.01
				c0.05,0,0.1,0,0.15,0.01c0.05,0,0.1,0.01,0.15,0.03c0.05,0.01,0.09,0.03,0.13,0.05c0.04,0.02,0.07,0.05,0.11,0.08
				c0.03,0.03,0.05,0.07,0.07,0.12c0.02,0.05,0.03,0.1,0.03,0.17c0,0.06-0.01,0.11-0.02,0.15c-0.01,0.04-0.03,0.08-0.06,0.11
				c-0.03,0.03-0.06,0.06-0.11,0.07c-0.05,0.02-0.1,0.03-0.16,0.05c0.09,0.01,0.16,0.02,0.22,0.04c0.06,0.03,0.11,0.06,0.15,0.09
				c0.04,0.04,0.07,0.09,0.09,0.14C40.27,14.71,40.28,14.77,40.28,14.84z M40,14c0-0.03,0-0.05,0-0.07c0-0.03-0.01-0.05-0.03-0.07
				c-0.01-0.02-0.03-0.04-0.05-0.06s-0.05-0.03-0.09-0.05c-0.04-0.01-0.09-0.03-0.15-0.03c-0.06-0.01-0.13-0.01-0.21-0.01h-0.79
				v0.62h0.79c0.12,0,0.21-0.01,0.28-0.03c0.07-0.02,0.12-0.04,0.16-0.07c0.03-0.03,0.06-0.06,0.07-0.1C40,14.08,40,14.04,40,14z
				 M40.11,14.83c0-0.07-0.01-0.12-0.03-0.18c-0.03-0.05-0.06-0.09-0.11-0.12c-0.05-0.03-0.11-0.05-0.19-0.07
				c-0.08-0.01-0.17-0.02-0.27-0.02h-0.84v0.73h0.86c0.11,0,0.2-0.01,0.27-0.02c0.07-0.01,0.14-0.03,0.18-0.06
				c0.05-0.03,0.08-0.06,0.1-0.11C40.1,14.95,40.11,14.89,40.11,14.83z"/>
			<path class="st0" d="M39.54,15.39h-1.09v-1.91h1.07c0.05,0,0.11,0,0.16,0.01c0.05,0,0.11,0.01,0.16,0.03
				c0.05,0.01,0.1,0.03,0.15,0.05c0.05,0.03,0.09,0.06,0.12,0.1c0.03,0.04,0.06,0.09,0.08,0.14c0.02,0.06,0.03,0.12,0.03,0.19
				c0,0.06-0.01,0.12-0.03,0.17c-0.02,0.05-0.04,0.1-0.08,0.13c-0.02,0.02-0.05,0.04-0.07,0.06c0,0,0,0,0,0
				c0.07,0.03,0.13,0.06,0.18,0.11c0.05,0.04,0.08,0.1,0.1,0.17c0.02,0.06,0.03,0.13,0.03,0.2c0,0.08-0.01,0.15-0.03,0.2
				c-0.02,0.06-0.05,0.11-0.09,0.15c-0.04,0.04-0.09,0.08-0.14,0.11c-0.05,0.03-0.1,0.05-0.16,0.06c-0.06,0.01-0.12,0.03-0.18,0.03
				C39.68,15.39,39.61,15.39,39.54,15.39z M38.58,15.26h0.97c0.06,0,0.13,0,0.19-0.01c0.06,0,0.12-0.01,0.17-0.03
				c0.05-0.01,0.09-0.03,0.14-0.05c0.04-0.02,0.07-0.04,0.1-0.07c0.03-0.03,0.05-0.07,0.06-0.11s0.02-0.1,0.02-0.16
				c0-0.06-0.01-0.12-0.03-0.16c-0.01-0.05-0.04-0.08-0.07-0.12c-0.03-0.03-0.07-0.06-0.13-0.08c0,0,0,0-0.01,0
				c0,0,0.01,0.01,0.02,0.01c0.06,0.03,0.1,0.09,0.13,0.14c0.03,0.06,0.04,0.12,0.04,0.2c0,0.07-0.01,0.13-0.03,0.18
				c-0.03,0.06-0.06,0.1-0.12,0.14c-0.05,0.03-0.12,0.06-0.2,0.07c-0.08,0.01-0.17,0.02-0.29,0.02h-0.92v-0.85h0.76l0.06-0.01h-0.82
				v-0.75h0.85c0.09,0,0.16,0,0.22,0.01c0.06,0.01,0.12,0.02,0.16,0.03c0.05,0.02,0.09,0.04,0.12,0.06
				c0.03,0.03,0.05,0.05,0.07,0.08c0.01,0.03,0.03,0.06,0.03,0.09c0,0.03,0.01,0.06,0.01,0.09c0,0.05-0.01,0.09-0.02,0.14
				c-0.01,0.03-0.03,0.07-0.06,0.1c0.01-0.01,0.03-0.02,0.03-0.03c0.02-0.03,0.04-0.05,0.05-0.09c0.01-0.03,0.02-0.08,0.02-0.13
				c0-0.06-0.01-0.11-0.02-0.15c-0.01-0.04-0.03-0.07-0.06-0.1c-0.03-0.03-0.05-0.05-0.09-0.07c-0.03-0.02-0.07-0.03-0.12-0.04
				c-0.04-0.01-0.09-0.02-0.14-0.02c-0.05,0-0.1-0.01-0.15-0.01H38.6L38.58,15.26L38.58,15.26z M38.75,15.12h0.79
				c0.11,0,0.19-0.01,0.26-0.02c0.06-0.01,0.12-0.03,0.16-0.05c0.03-0.02,0.06-0.05,0.07-0.08c0.01-0.03,0.03-0.08,0.03-0.13
				c0-0.06-0.01-0.11-0.03-0.15c-0.02-0.03-0.05-0.06-0.09-0.09c-0.04-0.03-0.1-0.05-0.16-0.06c-0.07-0.01-0.16-0.02-0.26-0.02
				h-0.77L38.75,15.12L38.75,15.12z M38.75,14.25h0.73c0.11,0,0.2-0.01,0.26-0.03c0.06-0.01,0.11-0.03,0.14-0.06
				c0.03-0.02,0.04-0.04,0.05-0.06c0.01-0.03,0.01-0.06,0.01-0.1c0-0.02,0-0.04,0-0.06c0-0.02-0.01-0.03-0.02-0.05
				c-0.01-0.02-0.02-0.03-0.04-0.05c-0.02-0.01-0.04-0.03-0.07-0.04c-0.03-0.01-0.08-0.02-0.14-0.03s-0.12-0.01-0.2-0.01h-0.73
				L38.75,14.25L38.75,14.25z"/>
		</g>
	</g>
	<g>
		<path class="st0" d="M34.64,8.06V6.19h-1.45v1.97c-0.02,0.38-0.13,0.73-0.32,1.05c-0.2,0.32-0.46,0.57-0.78,0.75
			c-0.33,0.18-0.68,0.28-1.08,0.28c-0.4,0-0.76-0.1-1.1-0.29c-0.33-0.2-0.59-0.46-0.79-0.79c-0.19-0.33-0.29-0.7-0.29-1.1V1.63
			h-1.43v6.42c0,0.66,0.16,1.26,0.49,1.81c0.32,0.55,0.76,0.99,1.31,1.31c0.55,0.33,1.15,0.49,1.81,0.49c0.15,0,0.3-0.01,0.44-0.03
			c0,0,0,0,0.01,0c0.43-0.05,0.82-0.17,1.2-0.36c0.21-0.11,0.41-0.23,0.58-0.37c0,0,0.01-0.01,0.02-0.02
			c1.19-1.01,1.38-2.63,1.38-2.63"/>
	</g>
</g>
</svg>
