<svg xmlns="http://www.w3.org/2000/svg" viewBox="0 0 539.74 61.88"><title>Element 2</title><g id="Ebene_2" data-name="Ebene 2"><g id="Ebene_1-2" data-name="Ebene 1"><path d="M54.16,50.32C49,57.73,40.28,61.65,29.71,61.65c-8.15,0-15.94-2.87-21.13-8C3.12,48.31,0,40.19,0,31.34A32.27,32.27,0,0,1,8.07,9.28C13.8,2.93,21.51,0,29.84,0A39.87,39.87,0,0,1,40.5,1.35c1.87.53,4.64,1.6,6.17,1.6A3.87,3.87,0,0,0,50.43,0h1.79L53,20.3H51c-1.06-4.92-2.41-7.51-4.65-9.93-3.93-4.2-8.59-6.79-14.4-6.79-13.53,0-21.5,10.89-21.51,26.34,0,9.82,2.23,16.8,6.43,21.36a21.73,21.73,0,0,0,15.94,6.44c8.05,0,13-2.67,19.7-9Z"/><path d="M132.05,60.46V58.77c3.22,0,3.85-.18,4.92-.8a2.63,2.63,0,0,0,1.26-2.15,18.89,18.89,0,0,0-1.7-6.26l-3.67-8.4H109.41l-4.12,10.18a11.72,11.72,0,0,0-.81,3.75c0,2.77,2,3.67,6.27,3.67v1.69H92.93V58.74c5.19-.53,6-2.41,11.29-14.92L122.69.23h1.79l22,50.32c2.51,5.81,3.75,7.69,8.41,8.23v1.69Zm-10.8-47.54L110.94,37.49h20.68Z"/><path d="M236.64,60.52,215.34,33l-5,.18V50.5c0,6.79,1.07,7.86,8,8.31v1.7l-24.71,0V58.8c6.72-.53,7.61-1.52,7.61-9.39l0-38.15c0-6.6-.7-7.68-7.6-8.22V1.35H218c8.51,0,14.86,2.15,18.71,5.28,3,2.42,4.39,6.8,4.38,10.73,0,7.77-5,13-16.21,14.64l17.89,22.62c2.59,3.3,4.48,3.84,8.42,4.2v1.7ZM210.33,29.86c8.6-.17,11.73-.8,15.85-3,3.23-1.78,5.11-5.71,5.11-10.19,0-8-5.27-12-16.37-12-3,0-4.57.62-4.58,3.74Z"/><path d="M328.06,60.57V58.88c3.22,0,3.85-.18,4.93-.8a2.59,2.59,0,0,0,1.25-2.15,18.78,18.78,0,0,0-1.69-6.25l-3.67-8.4-23.47,0L301.3,51.45a11.4,11.4,0,0,0-.81,3.74c0,2.78,2,3.67,6.26,3.68v1.69H288.93v-1.7c5.2-.53,6-2.41,11.29-14.91L318.69.34h1.8l22,50.32c2.5,5.8,3.75,7.69,8.4,8.22v1.7ZM317.25,13,306.94,37.6h20.69Z"/><path d="M449.32,30.62c-5.2.45-6.27,1.34-6.27,7.15V55.64c-4.93,4-13.53,6.24-22.76,6.24S402,58.47,396.12,52.31c-5-5.28-7.43-12.16-7.42-20.92,0-9.82,3.59-18,9.59-23.49C403.67,3,411,.22,419.7.22a33.79,33.79,0,0,1,11.9,2.07,12.24,12.24,0,0,0,3.94.89,4.25,4.25,0,0,0,4-2.94h2l.71,18.86h-2.06c-2.23-5.46-3.66-7.78-6.35-10.37A18.79,18.79,0,0,0,420.77,3.8a20.13,20.13,0,0,0-15,6.16c-4.75,4.73-6.9,12.86-6.9,21.71,0,16.62,9.47,26.63,23.53,26.64,6.9,0,11.91-2.49,11.91-5.44v-14c0-7-.89-7.68-8-8.23V29h22.93Z"/><path d="M535.61,60.69l-48.26,0V59c6.9-.44,7.8-1.6,7.8-8.48l0-39c0-6.61-1.07-8-7.79-8.32V1.52l47.47,0,.35,12.78H533c-1.34-8-3.4-9.38-13.79-9.38H507.44c-2.51,0-3.13.36-3.13,3.21V27.8h13.52c7.7,0,9-1.52,10.12-8.58H530V40.15h-2.06c-1.07-7.5-2.41-8.67-10.11-8.67H504.3V53.18c0,3.75,2.41,4.2,9,4.2h3.23c12.8,0,16.65-2.33,20.69-11.79h2.5Z"/></g></g></svg>