<svg xmlns="http://www.w3.org/2000/svg" width="148.488" height="31.226"><defs><clipPath id="a"><path data-name="Path 140" d="M0 12.866h148.488V-18.36H0z" transform="translate(0 18.36)" fill="none"/></clipPath></defs><g data-name="Group 690"><g data-name="Group 689" clip-path="url(#a)"><path data-name="Path 139" d="M143.162 9.396h5.242c-.822-7.371-7.039-9.485-12.323-9.393-6.74.117-11.123 3.939-11.024 9.533.077 4.449 2.771 7.354 8.6 8.352l4.951.884c3.4.512 4.441 2.036 4.468 3.623.044 2.51-2.131 4.09-5.788 4.153-4.492.078-7.58-2.179-8.028-5.76h-5.235c.563 6.692 5.686 10.563 13.041 10.434 6.96-.121 11.518-3.946 11.421-9.54-.083-4.8-3.383-7.033-9.128-8.079l-3.8-.682c-3.138-.563-4.874-1.634-4.915-3.924-.049-2.73 2.257-4.4 5.868-4.463 4.1-.071 6.113 1.876 6.65 4.862m-34.028 21.223h4.141V.665h-5.243v20.66L90.809.665H86.8v20.082h5.286V10.444zm-39.987 0h5.286V.665h-5.286zm-10.245 0l-8.148-10.794a9.438 9.438 0 0 0 6.342-9.118c0-6.079-4.89-10.043-11.628-10.043H33.175v15.195h5.286V5.554h6.827c3.7 0 6.607 1.981 6.607 5.153 0 3.216-2.907 5.153-6.607 5.153h-.213v4.89l7.395 9.868zm-35.776-19.6C23.127 4.804 18.412.665 11.275.665H0v29.954h5.286v-8.766h5.242c7.577 0 12.6-4.317 12.6-10.837m-5.242 0c0 3.612-2.731 5.992-6.784 5.992H5.287V5.554h5.815c4.053 0 6.784 2.2 6.784 5.461" fill="#121e27"/></g></g></svg>